<?xml version="1.0" encoding="UTF-8" standalone="no"?>
<!DOCTYPE svg PUBLIC "-//W3C//DTD SVG 1.0//EN" "http://www.w3.org/TR/2001/PR-SVG-20010719/DTD/svg10.dtd">
<svg width="46cm" height="18cm" viewBox="279 -1 901 342" xmlns="http://www.w3.org/2000/svg" xmlns:xlink="http://www.w3.org/1999/xlink">
  <g>
    <rect style="fill: #ffffff" x="280" y="0" width="898.929" height="340"/>
    <rect style="fill: none; fill-opacity:0; stroke-width: 2; stroke: #000000" x="280" y="0" width="898.929" height="340"/>
  </g>
  <g>
    <rect style="fill: #adbdff" x="449.196" y="200" width="162.634" height="100"/>
    <rect style="fill: none; fill-opacity:0; stroke-width: 2; stroke: #000000" x="449.196" y="200" width="162.634" height="100"/>
    <text font-size="12.7998" style="fill: #000000;text-anchor:middle;font-family:sans-serif;font-style:normal;font-weight:normal" x="530.513" y="254.8">
      <tspan x="530.513" y="254.8"></tspan>
    </text>
  </g>
  <g>
    <rect style="fill: #ffffff" x="600" y="40" width="340" height="140"/>
    <rect style="fill: none; fill-opacity:0; stroke-width: 2; stroke: #000000" x="600" y="40" width="340" height="140"/>
  </g>
  <g>
    <rect style="fill: #a5eaff" x="949.2" y="220" width="121.6" height="60"/>
    <rect style="fill: none; fill-opacity:0; stroke-width: 2; stroke: #000000" x="949.2" y="220" width="121.6" height="60"/>
    <text font-size="12.7998" style="fill: #000000;text-anchor:middle;font-family:sans-serif;font-style:normal;font-weight:normal" x="1010" y="254.8">
      <tspan x="1010" y="254.8">master/b1da223</tspan>
    </text>
  </g>
  <g>
    <rect style="fill: #a5eaff" x="632.95" y="220" width="114.1" height="60"/>
    <rect style="fill: none; fill-opacity:0; stroke-width: 2; stroke: #000000" x="632.95" y="220" width="114.1" height="60"/>
    <text font-size="12.7998" style="fill: #000000;text-anchor:middle;font-family:sans-serif;font-style:normal;font-weight:normal" x="690" y="254.8">
      <tspan x="690" y="254.8">master/a2a8333</tspan>
    </text>
  </g>
  <g>
    <rect style="fill: #a5eaff" x="472.8" y="220" width="114.4" height="60"/>
    <rect style="fill: none; fill-opacity:0; stroke-width: 2; stroke: #000000" x="472.8" y="220" width="114.4" height="60"/>
    <text font-size="12.7998" style="fill: #000000;text-anchor:middle;font-family:sans-serif;font-style:normal;font-weight:normal" x="530" y="254.8">
      <tspan x="530" y="254.8">master/a111223</tspan>
    </text>
  </g>
  <g>
    <rect style="fill: #a5eaff" x="312.9" y="220" width="114.2" height="60"/>
    <rect style="fill: none; fill-opacity:0; stroke-width: 2; stroke: #000000" x="312.9" y="220" width="114.2" height="60"/>
    <text font-size="12.7998" style="fill: #000000;text-anchor:middle;font-family:sans-serif;font-style:normal;font-weight:normal" x="370" y="254.8">
      <tspan x="370" y="254.8">master/80e2e02</tspan>
    </text>
  </g>
  <g>
    <rect style="fill: #ffd1a2" x="797.375" y="80" width="105.25" height="60"/>
    <rect style="fill: none; fill-opacity:0; stroke-width: 2; stroke: #000000" x="797.375" y="80" width="105.25" height="60"/>
    <text font-size="12.7998" style="fill: #000000;text-anchor:middle;font-family:sans-serif;font-style:normal;font-weight:normal" x="850" y="114.8">
      <tspan x="850" y="114.8">devel/aa32124</tspan>
    </text>
  </g>
  <g>
    <rect style="fill: #ffd1a2" x="636.975" y="80" width="106.05" height="60"/>
    <rect style="fill: none; fill-opacity:0; stroke-width: 2; stroke: #000000" x="636.975" y="80" width="106.05" height="60"/>
    <text font-size="12.7998" style="fill: #000000;text-anchor:middle;font-family:sans-serif;font-style:normal;font-weight:normal" x="690" y="114.8">
      <tspan x="690" y="114.8">devel/b2b2331</tspan>
    </text>
  </g>
  <g>
    <line style="fill: none; fill-opacity:0; stroke-width: 2; stroke: #000000" x1="948.193" y1="250" x2="757.793" y2="250"/>
    <polygon style="fill: #000000" points="750.293,250 760.293,245 757.793,250 760.293,255 "/>
    <polygon style="fill: none; fill-opacity:0; stroke-width: 2; stroke: #000000" points="750.293,250 760.293,245 757.793,250 760.293,255 "/>
  </g>
  <g>
    <line style="fill: none; fill-opacity:0; stroke-width: 2; stroke: #000000" x1="631.943" y1="250" x2="597.9" y2="250"/>
    <polygon style="fill: #000000" points="590.4,250 600.4,245 597.9,250 600.4,255 "/>
    <polygon style="fill: none; fill-opacity:0; stroke-width: 2; stroke: #000000" points="590.4,250 600.4,245 597.9,250 600.4,255 "/>
  </g>
  <g>
    <line style="fill: none; fill-opacity:0; stroke-width: 2; stroke: #000000" x1="471.836" y1="250" x2="437.832" y2="250"/>
    <polygon style="fill: #000000" points="430.332,250 440.332,245 437.832,250 440.332,255 "/>
    <polygon style="fill: none; fill-opacity:0; stroke-width: 2; stroke: #000000" points="430.332,250 440.332,245 437.832,250 440.332,255 "/>
  </g>
  <g>
    <line style="fill: none; fill-opacity:0; stroke-width: 2; stroke: #000000" x1="796.387" y1="110" x2="753.769" y2="110"/>
    <polygon style="fill: #000000" points="746.269,110 756.269,105 753.769,110 756.269,115 "/>
    <polygon style="fill: none; fill-opacity:0; stroke-width: 2; stroke: #000000" points="746.269,110 756.269,105 753.769,110 756.269,115 "/>
  </g>
  <text font-size="12.7998" style="fill: #000000;text-anchor:start;font-family:sans-serif;font-style:normal;font-weight:normal" x="770" y="110">
    <tspan x="770" y="110"></tspan>
  </text>
  <text font-size="12.7998" style="fill: #000000;text-anchor:start;font-family:sans-serif;font-style:normal;font-weight:normal" x="770" y="110">
    <tspan x="770" y="110"></tspan>
  </text>
  <text font-size="16.9331" style="fill: #000000;text-anchor:start;font-family:sans-serif;font-style:normal;font-weight:normal" x="640.707" y="64.9497">
    <tspan x="640.707" y="64.9497">Experimental feature development</tspan>
  </text>
  <text font-size="16.9331" style="fill: #000000;text-anchor:start;font-family:sans-serif;font-style:normal;font-weight:normal" x="360" y="120">
    <tspan x="360" y="120">Switch to master and</tspan>
    <tspan x="360" y="141.167">merge devel branch into it.</tspan>
    <tspan x="360" y="162.333">Solve conflicts, if any.</tspan>
  </text>
  <g>
    <path style="fill: none; fill-opacity:0; stroke-width: 2; stroke: #000000" d="M 635.969,112.083 A 138.25,138.25 0 0 0 534.989,209.561"/>
    <polygon style="fill: #000000" points="533.166,216.82 530.256,206.025 534.659,209.47 540.056,208.015 "/>
    <polygon style="fill: none; fill-opacity:0; stroke-width: 2; stroke: #000000" points="533.166,216.82 530.256,206.025 534.659,209.47 540.056,208.015 "/>
  </g>
  <g>
    <path style="fill: none; fill-opacity:0; stroke-width: 2; stroke: #000000" d="M 1007.28,219.011 A 138.25,138.25 0 0 0 913,114.555"/>
    <polygon style="fill: #000000" points="905.804,112.502 916.686,109.939 913.102,114.229 914.384,119.67 "/>
    <polygon style="fill: none; fill-opacity:0; stroke-width: 2; stroke: #000000" points="905.804,112.502 916.686,109.939 913.102,114.229 914.384,119.67 "/>
  </g>
  <text font-size="16.9331" style="fill: #000000;text-anchor:start;font-family:sans-serif;font-style:normal;font-weight:normal" x="980" y="120">
    <tspan x="980" y="120">Checkout devel and</tspan>
    <tspan x="980" y="141.167">develop a feature in it</tspan>
  </text>
  <text font-size="16.9331" style="fill: #000000;text-anchor:start;font-family:sans-serif;font-style:normal;font-weight:normal" x="780" y="280">
    <tspan x="780" y="280">Meanwhile one can</tspan>
    <tspan x="780" y="301.167">still commit to master</tspan>
  </text>
</svg>
