<?xml version="1.0" encoding="UTF-8"?><svg xmlns="http://www.w3.org/2000/svg" xmlns:xlink="http://www.w3.org/1999/xlink" fill-opacity="1" color-rendering="auto" color-interpolation="auto" text-rendering="auto" stroke="black" stroke-linecap="square" width="634" stroke-miterlimit="10" shape-rendering="auto" stroke-opacity="1" fill="black" stroke-dasharray="none" font-weight="normal" stroke-width="1" height="337" font-family="'Dialog'" font-style="normal" stroke-linejoin="miter" font-size="12px" stroke-dashoffset="0" image-rendering="auto">
  <!--Generated by ySVG 2.5-->
  <defs id="genericDefs"/>
  <g>
    <defs id="defs1">
      <clipPath clipPathUnits="userSpaceOnUse" id="clipPath1">
        <path d="M0 0 L634 0 L634 337 L0 337 L0 0 Z"/>
      </clipPath>
      <clipPath clipPathUnits="userSpaceOnUse" id="clipPath2">
        <path d="M683 664 L1317 664 L1317 1001 L683 1001 L683 664 Z"/>
      </clipPath>
    </defs>
    <g fill="white" text-rendering="geometricPrecision" shape-rendering="geometricPrecision" transform="translate(-683,-664)" stroke="white">
      <rect x="683" width="634" height="337" y="664" clip-path="url(#clipPath2)" stroke="none"/>
    </g>
    <g fill="rgb(245,245,245)" text-rendering="geometricPrecision" shape-rendering="geometricPrecision" transform="matrix(1,0,0,1,-683,-664)" stroke="rgb(245,245,245)">
      <rect x="698.7424" y="679.1977" clip-path="url(#clipPath2)" width="602.5396" rx="4" ry="4" height="306.2658" stroke="none"/>
      <rect x="698.7424" y="679.1977" clip-path="url(#clipPath2)" fill="rgb(235,235,235)" width="602.5396" height="21.9998" stroke="none"/>
    </g>
    <g font-size="15px" stroke-linecap="butt" transform="matrix(1,0,0,1,-683,-664)" text-rendering="geometricPrecision" font-family="'Lato'" shape-rendering="geometricPrecision" font-weight="bold" stroke-miterlimit="1.45">
      <text x="936.6227" xml:space="preserve" y="696.0025" clip-path="url(#clipPath2)" stroke="none">File status lifecycle</text>
      <rect x="698.7424" y="679.1977" clip-path="url(#clipPath2)" fill="none" width="602.5396" rx="4" ry="4" height="306.2658"/>
    </g>
    <g fill="silver" text-rendering="geometricPrecision" shape-rendering="geometricPrecision" transform="matrix(1,0,0,1,-683,-664)" stroke="silver">
      <rect x="1075.9907" width="2.44" height="164.312" y="782.9655" clip-path="url(#clipPath2)" stroke="none"/>
    </g>
    <g text-rendering="geometricPrecision" stroke-miterlimit="1.45" shape-rendering="geometricPrecision" transform="matrix(1,0,0,1,-683,-664)" stroke-linecap="butt">
      <rect fill="none" x="1075.9907" width="2.44" height="164.312" y="782.9655" clip-path="url(#clipPath2)"/>
    </g>
    <g fill="silver" text-rendering="geometricPrecision" shape-rendering="geometricPrecision" transform="matrix(1,0,0,1,-683,-664)" stroke="silver">
      <rect x="756.6707" width="2.44" height="164.312" y="782.9655" clip-path="url(#clipPath2)" stroke="none"/>
    </g>
    <g text-rendering="geometricPrecision" stroke-miterlimit="1.45" shape-rendering="geometricPrecision" transform="matrix(1,0,0,1,-683,-664)" stroke-linecap="butt">
      <rect fill="none" x="756.6707" width="2.44" height="164.312" y="782.9655" clip-path="url(#clipPath2)"/>
    </g>
    <g fill="silver" text-rendering="geometricPrecision" shape-rendering="geometricPrecision" transform="matrix(1,0,0,1,-683,-664)" stroke="silver">
      <rect x="1235.6507" width="2.44" height="164.312" y="782.9655" clip-path="url(#clipPath2)" stroke="none"/>
    </g>
    <g text-rendering="geometricPrecision" stroke-miterlimit="1.45" shape-rendering="geometricPrecision" transform="matrix(1,0,0,1,-683,-664)" stroke-linecap="butt">
      <rect fill="none" x="1235.6507" width="2.44" height="164.312" y="782.9655" clip-path="url(#clipPath2)"/>
    </g>
    <g fill="rgb(255,204,204)" text-rendering="geometricPrecision" shape-rendering="geometricPrecision" transform="matrix(1,0,0,1,-683,-664)" stroke="rgb(255,204,204)">
      <path d="M717.8907 734.5975 L797.8907 734.5975 L797.8907 774.5975 L717.8907 774.5975 Z" stroke="none" clip-path="url(#clipPath2)"/>
    </g>
    <g text-rendering="geometricPrecision" stroke-miterlimit="1.45" shape-rendering="geometricPrecision" transform="matrix(1,0,0,1,-683,-664)" stroke-linecap="butt">
      <path fill="none" d="M717.8907 734.5975 L797.8907 734.5975 L797.8907 774.5975 L717.8907 774.5975 Z" clip-path="url(#clipPath2)"/>
      <text x="730.3715" xml:space="preserve" y="759.2415" clip-path="url(#clipPath2)" font-family="'Lato'" stroke="none">Untracked</text>
    </g>
    <g fill="rgb(153,204,255)" text-rendering="geometricPrecision" shape-rendering="geometricPrecision" transform="matrix(1,0,0,1,-683,-664)" stroke="rgb(153,204,255)">
      <path d="M1196.8707 734.5975 L1276.8707 734.5975 L1276.8707 774.5975 L1196.8707 774.5975 Z" stroke="none" clip-path="url(#clipPath2)"/>
    </g>
    <g text-rendering="geometricPrecision" stroke-miterlimit="1.45" shape-rendering="geometricPrecision" transform="matrix(1,0,0,1,-683,-664)" stroke-linecap="butt">
      <path fill="none" d="M1196.8707 734.5975 L1276.8707 734.5975 L1276.8707 774.5975 L1196.8707 774.5975 Z" clip-path="url(#clipPath2)"/>
      <text x="1218.8346" xml:space="preserve" y="759.2415" clip-path="url(#clipPath2)" font-family="'Lato'" stroke="none">Staged</text>
    </g>
    <g fill="rgb(255,255,153)" text-rendering="geometricPrecision" shape-rendering="geometricPrecision" transform="matrix(1,0,0,1,-683,-664)" stroke="rgb(255,255,153)">
      <path d="M1037.2107 734.5975 L1117.2107 734.5975 L1117.2107 774.5975 L1037.2107 774.5975 Z" stroke="none" clip-path="url(#clipPath2)"/>
    </g>
    <g text-rendering="geometricPrecision" stroke-miterlimit="1.45" shape-rendering="geometricPrecision" transform="matrix(1,0,0,1,-683,-664)" stroke-linecap="butt">
      <path fill="none" d="M1037.2107 734.5975 L1117.2107 734.5975 L1117.2107 774.5975 L1037.2107 774.5975 Z" clip-path="url(#clipPath2)"/>
      <text x="1053.3665" xml:space="preserve" y="759.2415" clip-path="url(#clipPath2)" font-family="'Lato'" stroke="none">Modified</text>
    </g>
    <g fill="silver" text-rendering="geometricPrecision" shape-rendering="geometricPrecision" transform="matrix(1,0,0,1,-683,-664)" stroke="silver">
      <rect x="916.3307" width="2.44" height="164.312" y="782.9655" clip-path="url(#clipPath2)" stroke="none"/>
    </g>
    <g text-rendering="geometricPrecision" stroke-miterlimit="1.45" shape-rendering="geometricPrecision" transform="matrix(1,0,0,1,-683,-664)" stroke-linecap="butt">
      <rect fill="none" x="916.3307" width="2.44" height="164.312" y="782.9655" clip-path="url(#clipPath2)"/>
    </g>
    <g fill="rgb(153,255,153)" text-rendering="geometricPrecision" shape-rendering="geometricPrecision" transform="matrix(1,0,0,1,-683,-664)" stroke="rgb(153,255,153)">
      <path d="M877.5507 734.5975 L957.5507 734.5975 L957.5507 774.5975 L877.5507 774.5975 Z" stroke="none" clip-path="url(#clipPath2)"/>
    </g>
    <g text-rendering="geometricPrecision" stroke-miterlimit="1.45" shape-rendering="geometricPrecision" transform="matrix(1,0,0,1,-683,-664)" stroke-linecap="butt">
      <path fill="none" d="M877.5507 734.5975 L957.5507 734.5975 L957.5507 774.5975 L877.5507 774.5975 Z" clip-path="url(#clipPath2)"/>
      <text x="886.5815" xml:space="preserve" y="759.2415" clip-path="url(#clipPath2)" font-family="'Lato'" stroke="none">Unmodified</text>
    </g>
    <g stroke-linecap="butt" transform="matrix(1,0,0,1,-683,-664)" fill="white" text-rendering="geometricPrecision" shape-rendering="geometricPrecision" stroke="white" stroke-width="3" stroke-miterlimit="1.45">
      <path d="M1220.6715 861.5516 L1223.5215 866.3016 L1078.4191 866.3016 L1078.4191 869.3016 L1223.5215 869.3016 L1220.6715 874.0516 L1235.6715 867.8016 L1220.6715 861.5516 Z" stroke="none" clip-path="url(#clipPath2)"/>
      <path fill="none" d="M1220.6715 861.5516 L1223.5215 866.3016 L1078.4191 866.3016 L1078.4191 869.3016 L1223.5215 869.3016 L1220.6715 874.0516 L1235.6715 867.8016 L1220.6715 861.5516 Z" stroke-width="1" clip-path="url(#clipPath2)" stroke="black"/>
      <rect x="1130.2561" width="52.6783" height="18.4001" y="874.8129" clip-path="url(#clipPath2)" stroke="none"/>
    </g>
    <g text-rendering="geometricPrecision" stroke-miterlimit="1.45" shape-rendering="geometricPrecision" font-family="'Lato'" transform="matrix(1,0,0,1,-683,-664)" stroke-linecap="butt">
      <text x="1132.2561" xml:space="preserve" y="888.6569" clip-path="url(#clipPath2)" stroke="none">Stage file</text>
    </g>
    <g stroke-linecap="butt" transform="matrix(1,0,0,1,-683,-664)" fill="white" text-rendering="geometricPrecision" shape-rendering="geometricPrecision" stroke="white" stroke-width="3" stroke-miterlimit="1.45">
      <path d="M1220.6589 802.0509 L1223.5089 806.8009 L759.114 806.8009 L759.114 809.8009 L1223.5089 809.8009 L1220.6589 814.5509 L1235.6589 808.3009 L1220.6589 802.0509 Z" stroke="none" clip-path="url(#clipPath2)"/>
      <path fill="none" d="M1220.6589 802.0509 L1223.5089 806.8009 L759.114 806.8009 L759.114 809.8009 L1223.5089 809.8009 L1220.6589 814.5509 L1235.6589 808.3009 L1220.6589 802.0509 Z" stroke-width="1" clip-path="url(#clipPath2)" stroke="black"/>
      <rect x="798.9658" y="812.8759" clip-path="url(#clipPath2)" fill="rgb(153,255,153)" width="70.4205" height="18.4001" stroke="none"/>
    </g>
    <g text-rendering="geometricPrecision" stroke-miterlimit="1.45" shape-rendering="geometricPrecision" font-family="'Lato'" transform="matrix(1,0,0,1,-683,-664)" stroke-linecap="butt">
      <text x="800.9658" xml:space="preserve" y="826.72" clip-path="url(#clipPath2)" stroke="none">Add new file</text>
    </g>
    <g stroke-linecap="butt" transform="matrix(1,0,0,1,-683,-664)" fill="white" text-rendering="geometricPrecision" shape-rendering="geometricPrecision" stroke="white" stroke-width="3" stroke-miterlimit="1.45">
      <path d="M933.7639 925.1149 L918.7639 931.3649 L933.7639 937.6149 L930.9139 932.8649 L1235.6378 932.8649 L1235.6378 929.8649 L930.9139 929.8649 L933.7639 925.1149 Z" stroke="none" clip-path="url(#clipPath2)"/>
      <path fill="none" d="M933.7639 925.1149 L918.7639 931.3649 L933.7639 937.6149 L930.9139 932.8649 L1235.6378 932.8649 L1235.6378 929.8649 L930.9139 929.8649 L933.7639 925.1149 Z" stroke-width="1" clip-path="url(#clipPath2)" stroke="black"/>
      <rect x="949.2047" width="91.6726" height="18.4001" y="938.9369" clip-path="url(#clipPath2)" stroke="none"/>
    </g>
    <g text-rendering="geometricPrecision" stroke-miterlimit="1.45" shape-rendering="geometricPrecision" font-family="'Lato'" transform="matrix(1,0,0,1,-683,-664)" stroke-linecap="butt">
      <text x="951.2047" xml:space="preserve" y="952.781" clip-path="url(#clipPath2)" stroke="none">Commit changes</text>
    </g>
    <g stroke-linecap="butt" transform="matrix(1,0,0,1,-683,-664)" fill="white" text-rendering="geometricPrecision" shape-rendering="geometricPrecision" stroke="white" stroke-width="3" stroke-miterlimit="1.45">
      <path d="M1061.0115 832.4805 L1063.8615 837.2305 L918.759 837.2305 L918.759 840.2305 L1063.8615 840.2305 L1061.0115 844.9805 L1076.0115 838.7305 L1061.0115 832.4805 Z" stroke="none" clip-path="url(#clipPath2)"/>
      <path fill="none" d="M1061.0115 832.4805 L1063.8615 837.2305 L918.759 837.2305 L918.759 840.2305 L1063.8615 840.2305 L1061.0115 844.9805 L1076.0115 838.7305 L1061.0115 832.4805 Z" stroke-width="1" clip-path="url(#clipPath2)" stroke="black"/>
      <rect x="974.3305" width="44.1583" height="18.4001" y="844.779" clip-path="url(#clipPath2)" stroke="none"/>
    </g>
    <g text-rendering="geometricPrecision" stroke-miterlimit="1.45" shape-rendering="geometricPrecision" font-family="'Lato'" transform="matrix(1,0,0,1,-683,-664)" stroke-linecap="butt">
      <text x="976.3305" xml:space="preserve" y="858.6231" clip-path="url(#clipPath2)" stroke="none">Edit file</text>
    </g>
    <g text-rendering="geometricPrecision" stroke-miterlimit="1.45" shape-rendering="geometricPrecision" transform="matrix(1,0,0,1,-683,-664)" stroke-linecap="butt">
      <path fill="none" d="M774.1034 893.6375 L759.1034 899.8875 L774.1034 906.1375 L771.2534 901.3875 L916.3459 901.3875 L916.3459 898.3875 L771.2534 898.3875 L774.1034 893.6375 Z" clip-path="url(#clipPath2)"/>
      <rect x="800.9554" y="905.5354" clip-path="url(#clipPath2)" fill="rgb(255,204,204)" width="66.3824" height="18.4001" stroke="none" stroke-width="3"/>
      <text x="802.9554" xml:space="preserve" y="919.3795" clip-path="url(#clipPath2)" font-family="'Lato'" stroke="none">Remove file</text>
    </g>
  </g>
</svg>
