<?xml version="1.0" encoding="UTF-8"?><svg xmlns="http://www.w3.org/2000/svg" xmlns:xlink="http://www.w3.org/1999/xlink" fill-opacity="1" color-rendering="auto" color-interpolation="auto" text-rendering="auto" stroke="black" stroke-linecap="square" width="462" stroke-miterlimit="10" shape-rendering="auto" stroke-opacity="1" fill="black" stroke-dasharray="none" font-weight="normal" stroke-width="1" height="286" font-family="'Dialog'" font-style="normal" stroke-linejoin="miter" font-size="12px" stroke-dashoffset="0" image-rendering="auto">
  <!--Generated by ySVG 2.5-->
  <defs id="genericDefs"/>
  <g>
    <defs id="defs1">
      <clipPath clipPathUnits="userSpaceOnUse" id="clipPath1">
        <path d="M0 0 L462 0 L462 286 L0 286 L0 0 Z"/>
      </clipPath>
      <clipPath clipPathUnits="userSpaceOnUse" id="clipPath2">
        <path d="M600 269 L1062 269 L1062 555 L600 555 L600 269 Z"/>
      </clipPath>
    </defs>
    <g fill="silver" text-rendering="geometricPrecision" shape-rendering="geometricPrecision" transform="matrix(1,0,0,1,-600,-269)" stroke="silver">
      <rect x="829.68" width="2.44" height="164.312" y="333" clip-path="url(#clipPath2)" stroke="none"/>
    </g>
    <g text-rendering="geometricPrecision" stroke-miterlimit="1.45" shape-rendering="geometricPrecision" transform="matrix(1,0,0,1,-600,-269)" stroke-linecap="butt">
      <rect fill="none" x="829.68" width="2.44" height="164.312" y="333" clip-path="url(#clipPath2)"/>
    </g>
    <g fill="white" text-rendering="geometricPrecision" shape-rendering="geometricPrecision" transform="matrix(1,0,0,1,-600,-269)" stroke="white">
      <rect x="797.5465" width="66.707" height="18.7012" y="505.0737" clip-path="url(#clipPath2)" stroke="none"/>
    </g>
    <g text-rendering="geometricPrecision" stroke-miterlimit="1.45" shape-rendering="geometricPrecision" font-family="sans-serif" transform="matrix(1,0,0,1,-600,-269)" stroke-linecap="butt">
      <text x="799.5465" xml:space="preserve" y="519.1382" clip-path="url(#clipPath2)" stroke="none">Staged files</text>
    </g>
    <g fill="silver" text-rendering="geometricPrecision" shape-rendering="geometricPrecision" transform="matrix(1,0,0,1,-600,-269)" stroke="silver">
      <rect x="656.28" width="2.44" height="164.312" y="333" clip-path="url(#clipPath2)" stroke="none"/>
    </g>
    <g text-rendering="geometricPrecision" stroke-miterlimit="1.45" shape-rendering="geometricPrecision" transform="matrix(1,0,0,1,-600,-269)" stroke-linecap="butt">
      <rect fill="none" x="656.28" width="2.44" height="164.312" y="333" clip-path="url(#clipPath2)"/>
    </g>
    <g fill="white" text-rendering="geometricPrecision" shape-rendering="geometricPrecision" transform="matrix(1,0,0,1,-600,-269)" stroke="white">
      <rect x="615.0305" width="87.3789" height="33.4023" y="506.0977" clip-path="url(#clipPath2)" stroke="none"/>
    </g>
    <g text-rendering="geometricPrecision" stroke-miterlimit="1.45" shape-rendering="geometricPrecision" font-family="sans-serif" transform="matrix(1,0,0,1,-600,-269)" stroke-linecap="butt">
      <text x="617.3616" xml:space="preserve" y="520.1622" clip-path="url(#clipPath2)" stroke="none">Modified and/or</text>
      <text x="617.0305" xml:space="preserve" y="534.8633" clip-path="url(#clipPath2)" stroke="none">unmodified files</text>
    </g>
    <g fill="silver" text-rendering="geometricPrecision" shape-rendering="geometricPrecision" transform="matrix(1,0,0,1,-600,-269)" stroke="silver">
      <rect x="1003.08" width="2.44" height="164.312" y="333" clip-path="url(#clipPath2)" stroke="none"/>
    </g>
    <g text-rendering="geometricPrecision" stroke-miterlimit="1.45" shape-rendering="geometricPrecision" transform="matrix(1,0,0,1,-600,-269)" stroke-linecap="butt">
      <rect fill="none" x="1003.08" width="2.44" height="164.312" y="333" clip-path="url(#clipPath2)"/>
    </g>
    <g fill="white" text-rendering="geometricPrecision" shape-rendering="geometricPrecision" transform="matrix(1,0,0,1,-600,-269)" stroke="white">
      <rect x="959.7362" width="86.6875" height="18.7012" y="504.0497" clip-path="url(#clipPath2)" stroke="none"/>
    </g>
    <g text-rendering="geometricPrecision" stroke-miterlimit="1.45" shape-rendering="geometricPrecision" font-family="sans-serif" transform="matrix(1,0,0,1,-600,-269)" stroke-linecap="butt">
      <text x="961.7363" xml:space="preserve" y="518.1142" clip-path="url(#clipPath2)" stroke="none">Committed files</text>
    </g>
    <g fill="rgb(232,238,247)" text-rendering="geometricPrecision" shape-rendering="geometricPrecision" transform="matrix(1,0,0,1,-600,-269)" stroke="rgb(232,238,247)">
      <path d="M617.5 284.632 L697.5 284.632 L697.5 324.632 L617.5 324.632 Z" stroke="none" clip-path="url(#clipPath2)"/>
    </g>
    <g text-rendering="geometricPrecision" stroke-miterlimit="1.45" shape-rendering="geometricPrecision" transform="matrix(1,0,0,1,-600,-269)" stroke-linecap="butt">
      <path fill="none" d="M617.5 284.632 L697.5 284.632 L697.5 324.632 L617.5 324.632 Z" clip-path="url(#clipPath2)"/>
      <text x="635.4951" xml:space="preserve" y="301.9953" clip-path="url(#clipPath2)" font-family="sans-serif" stroke="none">Working</text>
      <text x="634.4932" xml:space="preserve" y="316.6964" clip-path="url(#clipPath2)" font-family="sans-serif" stroke="none">directory</text>
    </g>
    <g fill="rgb(255,255,153)" text-rendering="geometricPrecision" shape-rendering="geometricPrecision" transform="matrix(1,0,0,1,-600,-269)" stroke="rgb(255,255,153)">
      <path d="M790.9 284.632 L870.9 284.632 L870.9 324.632 L790.9 324.632 Z" stroke="none" clip-path="url(#clipPath2)"/>
    </g>
    <g text-rendering="geometricPrecision" stroke-miterlimit="1.45" shape-rendering="geometricPrecision" transform="matrix(1,0,0,1,-600,-269)" stroke-linecap="butt">
      <path fill="none" d="M790.9 284.632 L870.9 284.632 L870.9 324.632 L790.9 324.632 Z" clip-path="url(#clipPath2)"/>
      <text x="810.5504" xml:space="preserve" y="301.9953" clip-path="url(#clipPath2)" font-family="sans-serif" stroke="none">Staging</text>
      <text x="818.8912" xml:space="preserve" y="316.6964" clip-path="url(#clipPath2)" font-family="sans-serif" stroke="none">area</text>
    </g>
    <g fill="rgb(153,204,255)" text-rendering="geometricPrecision" shape-rendering="geometricPrecision" transform="matrix(1,0,0,1,-600,-269)" stroke="rgb(153,204,255)">
      <path d="M964.3 284.632 L1044.3 284.632 L1044.3 324.632 L964.3 324.632 Z" stroke="none" clip-path="url(#clipPath2)"/>
    </g>
    <g text-rendering="geometricPrecision" stroke-miterlimit="1.45" shape-rendering="geometricPrecision" transform="matrix(1,0,0,1,-600,-269)" stroke-linecap="butt">
      <path fill="none" d="M964.3 284.632 L1044.3 284.632 L1044.3 324.632 L964.3 324.632 Z" clip-path="url(#clipPath2)"/>
      <text x="971.9592" xml:space="preserve" y="301.9953" clip-path="url(#clipPath2)" font-family="sans-serif" stroke="none">Git directory</text>
      <text x="973.9601" xml:space="preserve" y="316.6964" clip-path="url(#clipPath2)" font-family="sans-serif" stroke="none">(repository)</text>
    </g>
    <g stroke-linecap="butt" transform="matrix(1,0,0,1,-600,-269)" fill="white" text-rendering="geometricPrecision" shape-rendering="geometricPrecision" stroke="white" stroke-width="3" stroke-miterlimit="1.45">
      <path d="M814.681 400.202 L817.531 404.952 L658.7277 404.952 L658.7277 407.952 L817.531 407.952 L814.681 412.702 L829.681 406.452 L814.681 400.202 Z" stroke="none" clip-path="url(#clipPath2)"/>
      <path fill="none" d="M814.681 400.202 L817.531 404.952 L658.7277 404.952 L658.7277 407.952 L817.531 407.952 L814.681 412.702 L829.681 406.452 L814.681 400.202 Z" stroke-width="1" clip-path="url(#clipPath2)" stroke="black"/>
      <rect x="714.2538" width="60.0332" height="18.7012" y="409.8417" clip-path="url(#clipPath2)" stroke="none"/>
    </g>
    <g text-rendering="geometricPrecision" stroke-miterlimit="1.45" shape-rendering="geometricPrecision" font-family="sans-serif" transform="matrix(1,0,0,1,-600,-269)" stroke-linecap="butt">
      <text x="716.2538" xml:space="preserve" y="423.9062" clip-path="url(#clipPath2)" stroke="none">Stage files</text>
    </g>
    <g stroke-linecap="butt" transform="matrix(1,0,0,1,-600,-269)" fill="white" text-rendering="geometricPrecision" shape-rendering="geometricPrecision" stroke="white" stroke-width="3" stroke-miterlimit="1.45">
      <path d="M988.081 442.8821 L990.931 447.6321 L832.1277 447.6321 L832.1277 450.6321 L990.931 450.6321 L988.081 455.3821 L1003.081 449.1321 L988.081 442.8821 Z" stroke="none" clip-path="url(#clipPath2)"/>
      <path fill="none" d="M988.081 442.8821 L990.931 447.6321 L832.1277 447.6321 L832.1277 450.6321 L990.931 450.6321 L988.081 455.3821 L1003.081 449.1321 L988.081 442.8821 Z" stroke-width="1" clip-path="url(#clipPath2)" stroke="black"/>
      <rect x="867.8488" width="102.0273" height="18.7012" y="452.126" clip-path="url(#clipPath2)" stroke="none"/>
    </g>
    <g text-rendering="geometricPrecision" stroke-miterlimit="1.45" shape-rendering="geometricPrecision" font-family="sans-serif" transform="matrix(1,0,0,1,-600,-269)" stroke-linecap="butt">
      <text x="869.8488" xml:space="preserve" y="466.1904" clip-path="url(#clipPath2)" stroke="none">Commit “changes”</text>
    </g>
    <g stroke-linecap="butt" transform="matrix(1,0,0,1,-600,-269)" fill="white" text-rendering="geometricPrecision" shape-rendering="geometricPrecision" stroke="white" stroke-width="3" stroke-miterlimit="1.45">
      <path d="M673.7233 355.2413 L658.7233 361.4913 L673.7233 367.7413 L670.8734 362.9913 L1003.0723 362.9913 L1003.0723 359.9913 L670.8734 359.9913 L673.7233 355.2413 Z" stroke="none" clip-path="url(#clipPath2)"/>
      <path fill="none" d="M673.7233 355.2413 L658.7233 361.4913 L673.7233 367.7413 L670.8734 362.9913 L1003.0723 362.9913 L1003.0723 359.9913 L670.8734 359.9913 L673.7233 355.2413 Z" stroke-width="1" clip-path="url(#clipPath2)" stroke="black"/>
      <rect x="784.443" width="92.7109" height="18.7012" y="363.5842" clip-path="url(#clipPath2)" stroke="none"/>
    </g>
    <g text-rendering="geometricPrecision" stroke-miterlimit="1.45" shape-rendering="geometricPrecision" font-family="sans-serif" transform="matrix(1,0,0,1,-600,-269)" stroke-linecap="butt">
      <text x="786.443" xml:space="preserve" y="377.6486" clip-path="url(#clipPath2)" stroke="none">Project checkout</text>
    </g>
  </g>
</svg>
