<?xml version="1.0" encoding="UTF-8"?><svg xmlns="http://www.w3.org/2000/svg" xmlns:xlink="http://www.w3.org/1999/xlink" fill-opacity="1" color-rendering="auto" color-interpolation="auto" text-rendering="auto" stroke="black" stroke-linecap="square" width="495" stroke-miterlimit="10" shape-rendering="auto" stroke-opacity="1" fill="black" stroke-dasharray="none" font-weight="normal" stroke-width="1" height="337" font-family="'Dialog'" font-style="normal" stroke-linejoin="miter" font-size="12px" stroke-dashoffset="0" image-rendering="auto">
  <!--Generated by ySVG 2.5-->
  <defs id="genericDefs"/>
  <g>
    <defs id="defs1">
      <clipPath clipPathUnits="userSpaceOnUse" id="clipPath1">
        <path d="M0 0 L495 0 L495 337 L0 337 L0 0 Z"/>
      </clipPath>
      <clipPath clipPathUnits="userSpaceOnUse" id="clipPath2">
        <path d="M683 688 L1178 688 L1178 1025 L683 1025 L683 688 Z"/>
      </clipPath>
    </defs>
    <g fill="white" text-rendering="geometricPrecision" shape-rendering="geometricPrecision" transform="translate(-683,-688)" stroke="white">
      <rect x="683" width="495" height="337" y="688" clip-path="url(#clipPath2)" stroke="none"/>
    </g>
    <g fill="rgb(245,245,245)" text-rendering="geometricPrecision" shape-rendering="geometricPrecision" transform="matrix(1,0,0,1,-683,-688)" stroke="rgb(245,245,245)">
      <rect x="698.7424" y="703.1977" clip-path="url(#clipPath2)" width="463.5396" rx="4" ry="4" height="306.2658" stroke="none"/>
      <rect x="698.7424" y="703.1977" clip-path="url(#clipPath2)" fill="rgb(235,235,235)" width="463.5396" height="21.9998" stroke="none"/>
    </g>
    <g font-size="15px" stroke-linecap="butt" transform="matrix(1,0,0,1,-683,-688)" text-rendering="geometricPrecision" font-family="'Lato'" shape-rendering="geometricPrecision" font-weight="bold" stroke-miterlimit="1.45">
      <text x="875.4927" xml:space="preserve" y="720.0025" clip-path="url(#clipPath2)" stroke="none">Local operations</text>
      <rect x="698.7424" y="703.1977" clip-path="url(#clipPath2)" fill="none" width="463.5396" rx="4" ry="4" height="306.2658"/>
    </g>
    <g fill="silver" text-rendering="geometricPrecision" shape-rendering="geometricPrecision" transform="matrix(1,0,0,1,-683,-688)" stroke="silver">
      <rect x="930.0707" width="2.44" height="164.312" y="788.5655" clip-path="url(#clipPath2)" stroke="none"/>
    </g>
    <g text-rendering="geometricPrecision" stroke-miterlimit="1.45" shape-rendering="geometricPrecision" transform="matrix(1,0,0,1,-683,-688)" stroke-linecap="butt">
      <rect fill="none" x="930.0707" width="2.44" height="164.312" y="788.5655" clip-path="url(#clipPath2)"/>
    </g>
    <g fill="white" text-rendering="geometricPrecision" shape-rendering="geometricPrecision" transform="matrix(1,0,0,1,-683,-688)" stroke="white">
      <rect x="898.9935" width="64.5944" height="18.4001" y="960.6392" clip-path="url(#clipPath2)" stroke="none"/>
    </g>
    <g text-rendering="geometricPrecision" stroke-miterlimit="1.45" shape-rendering="geometricPrecision" font-family="'Lato'" transform="matrix(1,0,0,1,-683,-688)" stroke-linecap="butt">
      <text x="900.9935" xml:space="preserve" y="974.4833" clip-path="url(#clipPath2)" stroke="none">Staged files</text>
    </g>
    <g fill="silver" text-rendering="geometricPrecision" shape-rendering="geometricPrecision" transform="matrix(1,0,0,1,-683,-688)" stroke="silver">
      <rect x="756.6707" width="2.44" height="164.312" y="788.5655" clip-path="url(#clipPath2)" stroke="none"/>
    </g>
    <g text-rendering="geometricPrecision" stroke-miterlimit="1.45" shape-rendering="geometricPrecision" transform="matrix(1,0,0,1,-683,-688)" stroke-linecap="butt">
      <rect fill="none" x="756.6707" width="2.44" height="164.312" y="788.5655" clip-path="url(#clipPath2)"/>
    </g>
    <g fill="white" text-rendering="geometricPrecision" shape-rendering="geometricPrecision" transform="matrix(1,0,0,1,-683,-688)" stroke="white">
      <rect x="713.7424" width="90.7366" height="32.8002" y="961.6632" clip-path="url(#clipPath2)" stroke="none"/>
    </g>
    <g text-rendering="geometricPrecision" stroke-miterlimit="1.45" shape-rendering="geometricPrecision" font-family="'Lato'" transform="matrix(1,0,0,1,-683,-688)" stroke-linecap="butt">
      <text x="715.7424" xml:space="preserve" y="975.5073" clip-path="url(#clipPath2)" stroke="none">Modified and/or</text>
      <text x="716.9484" xml:space="preserve" y="989.9074" clip-path="url(#clipPath2)" stroke="none">unmodified files</text>
    </g>
    <g fill="silver" text-rendering="geometricPrecision" shape-rendering="geometricPrecision" transform="matrix(1,0,0,1,-683,-688)" stroke="silver">
      <rect x="1103.4707" width="2.44" height="164.312" y="788.5655" clip-path="url(#clipPath2)" stroke="none"/>
    </g>
    <g text-rendering="geometricPrecision" stroke-miterlimit="1.45" shape-rendering="geometricPrecision" transform="matrix(1,0,0,1,-683,-688)" stroke-linecap="butt">
      <rect fill="none" x="1103.4707" width="2.44" height="164.312" y="788.5655" clip-path="url(#clipPath2)"/>
    </g>
    <g fill="white" text-rendering="geometricPrecision" shape-rendering="geometricPrecision" transform="matrix(1,0,0,1,-683,-688)" stroke="white">
      <rect x="1059.6594" width="87.6226" height="18.4001" y="959.6152" clip-path="url(#clipPath2)" stroke="none"/>
    </g>
    <g text-rendering="geometricPrecision" stroke-miterlimit="1.45" shape-rendering="geometricPrecision" font-family="'Lato'" transform="matrix(1,0,0,1,-683,-688)" stroke-linecap="butt">
      <text x="1061.6594" xml:space="preserve" y="973.4593" clip-path="url(#clipPath2)" stroke="none">Committed files</text>
    </g>
    <g fill="rgb(232,238,247)" text-rendering="geometricPrecision" shape-rendering="geometricPrecision" transform="matrix(1,0,0,1,-683,-688)" stroke="rgb(232,238,247)">
      <path d="M717.8907 740.1975 L797.8907 740.1975 L797.8907 780.1975 L717.8907 780.1975 Z" stroke="none" clip-path="url(#clipPath2)"/>
    </g>
    <g text-rendering="geometricPrecision" stroke-miterlimit="1.45" shape-rendering="geometricPrecision" transform="matrix(1,0,0,1,-683,-688)" stroke-linecap="butt">
      <path fill="none" d="M717.8907 740.1975 L797.8907 740.1975 L797.8907 780.1975 L717.8907 780.1975 Z" clip-path="url(#clipPath2)"/>
      <text x="735.1355" xml:space="preserve" y="757.6415" clip-path="url(#clipPath2)" font-family="'Lato'" stroke="none">Working</text>
      <text x="734.0435" xml:space="preserve" y="772.0416" clip-path="url(#clipPath2)" font-family="'Lato'" stroke="none">directory</text>
    </g>
    <g fill="rgb(255,255,153)" text-rendering="geometricPrecision" shape-rendering="geometricPrecision" transform="matrix(1,0,0,1,-683,-688)" stroke="rgb(255,255,153)">
      <path d="M891.2906 740.1975 L971.2906 740.1975 L971.2906 780.1975 L891.2906 780.1975 Z" stroke="none" clip-path="url(#clipPath2)"/>
    </g>
    <g text-rendering="geometricPrecision" stroke-miterlimit="1.45" shape-rendering="geometricPrecision" transform="matrix(1,0,0,1,-683,-688)" stroke-linecap="butt">
      <path fill="none" d="M891.2906 740.1975 L971.2906 740.1975 L971.2906 780.1975 L891.2906 780.1975 Z" clip-path="url(#clipPath2)"/>
      <text x="911.8745" xml:space="preserve" y="757.6415" clip-path="url(#clipPath2)" font-family="'Lato'" stroke="none">Staging</text>
      <text x="919.9746" xml:space="preserve" y="772.0416" clip-path="url(#clipPath2)" font-family="'Lato'" stroke="none">area</text>
    </g>
    <g fill="rgb(153,204,255)" text-rendering="geometricPrecision" shape-rendering="geometricPrecision" transform="matrix(1,0,0,1,-683,-688)" stroke="rgb(153,204,255)">
      <path d="M1064.6907 740.1975 L1144.6907 740.1975 L1144.6907 780.1975 L1064.6907 780.1975 Z" stroke="none" clip-path="url(#clipPath2)"/>
    </g>
    <g text-rendering="geometricPrecision" stroke-miterlimit="1.45" shape-rendering="geometricPrecision" transform="matrix(1,0,0,1,-683,-688)" stroke-linecap="butt">
      <path fill="none" d="M1064.6907 740.1975 L1144.6907 740.1975 L1144.6907 780.1975 L1064.6907 780.1975 Z" clip-path="url(#clipPath2)"/>
      <text x="1071.3335" xml:space="preserve" y="757.6415" clip-path="url(#clipPath2)" font-family="'Lato'" stroke="none">Git directory</text>
      <text x="1074.5015" xml:space="preserve" y="772.0416" clip-path="url(#clipPath2)" font-family="'Lato'" stroke="none">(repository)</text>
    </g>
    <g stroke-linecap="butt" transform="matrix(1,0,0,1,-683,-688)" fill="white" text-rendering="geometricPrecision" shape-rendering="geometricPrecision" stroke="white" stroke-width="3" stroke-miterlimit="1.45">
      <path d="M915.0717 855.7675 L917.9216 860.5175 L759.1183 860.5175 L759.1183 863.5175 L917.9216 863.5175 L915.0717 868.2675 L930.0717 862.0175 L915.0717 855.7675 Z" stroke="none" clip-path="url(#clipPath2)"/>
      <path fill="none" d="M915.0717 855.7675 L917.9216 860.5175 L759.1183 860.5175 L759.1183 863.5175 L917.9216 863.5175 L915.0717 868.2675 L930.0717 862.0175 L915.0717 855.7675 Z" stroke-width="1" clip-path="url(#clipPath2)" stroke="black"/>
      <rect x="815.7239" width="57.8744" height="18.4001" y="865.5578" clip-path="url(#clipPath2)" stroke="none"/>
    </g>
    <g text-rendering="geometricPrecision" stroke-miterlimit="1.45" shape-rendering="geometricPrecision" font-family="'Lato'" transform="matrix(1,0,0,1,-683,-688)" stroke-linecap="butt">
      <text x="817.7239" xml:space="preserve" y="879.4019" clip-path="url(#clipPath2)" stroke="none">Stage files</text>
    </g>
    <g stroke-linecap="butt" transform="matrix(1,0,0,1,-683,-688)" fill="white" text-rendering="geometricPrecision" shape-rendering="geometricPrecision" stroke="white" stroke-width="3" stroke-miterlimit="1.45">
      <path d="M1088.4717 898.4476 L1091.3217 903.1976 L932.5184 903.1976 L932.5184 906.1976 L1091.3217 906.1976 L1088.4717 910.9476 L1103.4717 904.6976 L1088.4717 898.4476 Z" stroke="none" clip-path="url(#clipPath2)"/>
      <path fill="none" d="M1088.4717 898.4476 L1091.3217 903.1976 L932.5184 903.1976 L932.5184 906.1976 L1091.3217 906.1976 L1088.4717 910.9476 L1103.4717 904.6976 L1088.4717 898.4476 Z" stroke-width="1" clip-path="url(#clipPath2)" stroke="black"/>
      <rect x="969.0308" width="100.4447" height="18.4001" y="907.842" clip-path="url(#clipPath2)" stroke="none"/>
    </g>
    <g text-rendering="geometricPrecision" stroke-miterlimit="1.45" shape-rendering="geometricPrecision" font-family="'Lato'" transform="matrix(1,0,0,1,-683,-688)" stroke-linecap="butt">
      <text x="971.0308" xml:space="preserve" y="921.6861" clip-path="url(#clipPath2)" stroke="none">Commit “changes”</text>
    </g>
    <g stroke-linecap="butt" transform="matrix(1,0,0,1,-683,-688)" fill="white" text-rendering="geometricPrecision" shape-rendering="geometricPrecision" stroke="white" stroke-width="3" stroke-miterlimit="1.45">
      <path d="M774.114 810.8068 L759.114 817.0568 L774.114 823.3068 L771.264 818.5568 L1103.463 818.5568 L1103.463 815.5568 L771.264 815.5568 L774.114 810.8068 Z" stroke="none" clip-path="url(#clipPath2)"/>
      <path fill="none" d="M774.114 810.8068 L759.114 817.0568 L774.114 823.3068 L771.264 818.5568 L1103.463 818.5568 L1103.463 815.5568 L771.264 815.5568 L774.114 810.8068 Z" stroke-width="1" clip-path="url(#clipPath2)" stroke="black"/>
      <rect x="884.6478" width="93.0826" height="18.4001" y="819.3002" clip-path="url(#clipPath2)" stroke="none"/>
    </g>
    <g text-rendering="geometricPrecision" stroke-miterlimit="1.45" shape-rendering="geometricPrecision" font-family="'Lato'" transform="matrix(1,0,0,1,-683,-688)" stroke-linecap="butt">
      <text x="886.6478" xml:space="preserve" y="833.1443" clip-path="url(#clipPath2)" stroke="none">Project checkout</text>
    </g>
  </g>
</svg>
