<?xml version="1.0" encoding="UTF-8"?><svg xmlns="http://www.w3.org/2000/svg" xmlns:xlink="http://www.w3.org/1999/xlink" fill-opacity="1" color-rendering="auto" color-interpolation="auto" text-rendering="auto" stroke="black" stroke-linecap="square" width="633" stroke-miterlimit="10" shape-rendering="auto" stroke-opacity="1" fill="black" stroke-dasharray="none" font-weight="normal" stroke-width="1" height="404" font-family="'Dialog'" font-style="normal" stroke-linejoin="miter" font-size="12px" stroke-dashoffset="0" image-rendering="auto">
  <!--Generated by ySVG 2.5-->
  <defs id="genericDefs"/>
  <g>
    <defs id="defs1">
      <clipPath clipPathUnits="userSpaceOnUse" id="clipPath1">
        <path d="M0 0 L633 0 L633 404 L0 404 L0 0 Z"/>
      </clipPath>
      <clipPath clipPathUnits="userSpaceOnUse" id="clipPath2">
        <path d="M530 682 L1163 682 L1163 1086 L530 1086 L530 682 Z"/>
      </clipPath>
    </defs>
    <g fill="white" text-rendering="geometricPrecision" shape-rendering="geometricPrecision" transform="translate(-530,-682)" stroke="white">
      <rect x="530" width="633" height="404" y="682" clip-path="url(#clipPath2)" stroke="none"/>
    </g>
    <g fill="rgb(245,245,245)" text-rendering="geometricPrecision" shape-rendering="geometricPrecision" transform="matrix(1,0,0,1,-530,-682)" stroke="rgb(245,245,245)">
      <rect x="545.7424" y="697.1977" clip-path="url(#clipPath2)" width="463.5396" rx="4" ry="4" height="373.4658" stroke="none"/>
      <rect x="545.7424" y="697.1977" clip-path="url(#clipPath2)" fill="rgb(235,235,235)" width="463.5396" height="21.9998" stroke="none"/>
    </g>
    <g font-size="15px" stroke-linecap="butt" transform="matrix(1,0,0,1,-530,-682)" text-rendering="geometricPrecision" font-family="'Lato'" shape-rendering="geometricPrecision" font-weight="bold" stroke-miterlimit="1.45">
      <text x="722.4927" xml:space="preserve" y="714.0025" clip-path="url(#clipPath2)" stroke="none">Local operations</text>
      <rect x="545.7424" y="697.1977" clip-path="url(#clipPath2)" fill="none" width="463.5396" rx="4" ry="4" height="373.4658"/>
    </g>
    <g fill="silver" text-rendering="geometricPrecision" shape-rendering="geometricPrecision" transform="matrix(1,0,0,1,-530,-682)" stroke="silver">
      <rect x="777.0707" width="2.44" height="231.512" y="782.5655" clip-path="url(#clipPath2)" stroke="none"/>
    </g>
    <g text-rendering="geometricPrecision" stroke-miterlimit="1.45" shape-rendering="geometricPrecision" transform="matrix(1,0,0,1,-530,-682)" stroke-linecap="butt">
      <rect fill="none" x="777.0707" width="2.44" height="231.512" y="782.5655" clip-path="url(#clipPath2)"/>
    </g>
    <g fill="white" text-rendering="geometricPrecision" shape-rendering="geometricPrecision" transform="matrix(1,0,0,1,-530,-682)" stroke="white">
      <rect x="745.9935" width="64.5944" height="18.4001" y="1021.8392" clip-path="url(#clipPath2)" stroke="none"/>
    </g>
    <g text-rendering="geometricPrecision" stroke-miterlimit="1.45" shape-rendering="geometricPrecision" font-family="'Lato'" transform="matrix(1,0,0,1,-530,-682)" stroke-linecap="butt">
      <text x="747.9935" xml:space="preserve" y="1035.6833" clip-path="url(#clipPath2)" stroke="none">Staged files</text>
    </g>
    <g fill="silver" text-rendering="geometricPrecision" shape-rendering="geometricPrecision" transform="matrix(1,0,0,1,-530,-682)" stroke="silver">
      <rect x="603.6707" width="2.44" height="231.512" y="782.5655" clip-path="url(#clipPath2)" stroke="none"/>
    </g>
    <g text-rendering="geometricPrecision" stroke-miterlimit="1.45" shape-rendering="geometricPrecision" transform="matrix(1,0,0,1,-530,-682)" stroke-linecap="butt">
      <rect fill="none" x="603.6707" width="2.44" height="231.512" y="782.5655" clip-path="url(#clipPath2)"/>
    </g>
    <g fill="white" text-rendering="geometricPrecision" shape-rendering="geometricPrecision" transform="matrix(1,0,0,1,-530,-682)" stroke="white">
      <rect x="560.7424" width="90.7366" height="32.8002" y="1022.8632" clip-path="url(#clipPath2)" stroke="none"/>
    </g>
    <g text-rendering="geometricPrecision" stroke-miterlimit="1.45" shape-rendering="geometricPrecision" font-family="'Lato'" transform="matrix(1,0,0,1,-530,-682)" stroke-linecap="butt">
      <text x="562.7424" xml:space="preserve" y="1036.7073" clip-path="url(#clipPath2)" stroke="none">Modified and/or</text>
      <text x="563.9484" xml:space="preserve" y="1051.1074" clip-path="url(#clipPath2)" stroke="none">unmodified files</text>
    </g>
    <g fill="silver" text-rendering="geometricPrecision" shape-rendering="geometricPrecision" transform="matrix(1,0,0,1,-530,-682)" stroke="silver">
      <rect x="950.4707" width="2.44" height="231.512" y="782.5655" clip-path="url(#clipPath2)" stroke="none"/>
    </g>
    <g text-rendering="geometricPrecision" stroke-miterlimit="1.45" shape-rendering="geometricPrecision" transform="matrix(1,0,0,1,-530,-682)" stroke-linecap="butt">
      <rect fill="none" x="950.4707" width="2.44" height="231.512" y="782.5655" clip-path="url(#clipPath2)"/>
    </g>
    <g fill="white" text-rendering="geometricPrecision" shape-rendering="geometricPrecision" transform="matrix(1,0,0,1,-530,-682)" stroke="white">
      <rect x="906.6594" width="87.6226" height="18.4001" y="1020.8152" clip-path="url(#clipPath2)" stroke="none"/>
    </g>
    <g text-rendering="geometricPrecision" stroke-miterlimit="1.45" shape-rendering="geometricPrecision" font-family="'Lato'" transform="matrix(1,0,0,1,-530,-682)" stroke-linecap="butt">
      <text x="908.6594" xml:space="preserve" y="1034.6593" clip-path="url(#clipPath2)" stroke="none">Committed files</text>
    </g>
    <g fill="rgb(232,238,247)" text-rendering="geometricPrecision" shape-rendering="geometricPrecision" transform="matrix(1,0,0,1,-530,-682)" stroke="rgb(232,238,247)">
      <path d="M564.8907 734.1975 L644.8907 734.1975 L644.8907 774.1975 L564.8907 774.1975 Z" stroke="none" clip-path="url(#clipPath2)"/>
    </g>
    <g text-rendering="geometricPrecision" stroke-miterlimit="1.45" shape-rendering="geometricPrecision" transform="matrix(1,0,0,1,-530,-682)" stroke-linecap="butt">
      <path fill="none" d="M564.8907 734.1975 L644.8907 734.1975 L644.8907 774.1975 L564.8907 774.1975 Z" clip-path="url(#clipPath2)"/>
      <text x="582.1355" xml:space="preserve" y="751.6415" clip-path="url(#clipPath2)" font-family="'Lato'" stroke="none">Working</text>
      <text x="581.0435" xml:space="preserve" y="766.0416" clip-path="url(#clipPath2)" font-family="'Lato'" stroke="none">directory</text>
    </g>
    <g fill="rgb(255,255,153)" text-rendering="geometricPrecision" shape-rendering="geometricPrecision" transform="matrix(1,0,0,1,-530,-682)" stroke="rgb(255,255,153)">
      <path d="M738.2906 734.1975 L818.2906 734.1975 L818.2906 774.1975 L738.2906 774.1975 Z" stroke="none" clip-path="url(#clipPath2)"/>
    </g>
    <g text-rendering="geometricPrecision" stroke-miterlimit="1.45" shape-rendering="geometricPrecision" transform="matrix(1,0,0,1,-530,-682)" stroke-linecap="butt">
      <path fill="none" d="M738.2906 734.1975 L818.2906 734.1975 L818.2906 774.1975 L738.2906 774.1975 Z" clip-path="url(#clipPath2)"/>
      <text x="758.8745" xml:space="preserve" y="751.6415" clip-path="url(#clipPath2)" font-family="'Lato'" stroke="none">Staging</text>
      <text x="766.9746" xml:space="preserve" y="766.0416" clip-path="url(#clipPath2)" font-family="'Lato'" stroke="none">area</text>
    </g>
    <g fill="rgb(153,204,255)" text-rendering="geometricPrecision" shape-rendering="geometricPrecision" transform="matrix(1,0,0,1,-530,-682)" stroke="rgb(153,204,255)">
      <path d="M911.6907 734.1975 L991.6907 734.1975 L991.6907 774.1975 L911.6907 774.1975 Z" stroke="none" clip-path="url(#clipPath2)"/>
    </g>
    <g text-rendering="geometricPrecision" stroke-miterlimit="1.45" shape-rendering="geometricPrecision" transform="matrix(1,0,0,1,-530,-682)" stroke-linecap="butt">
      <path fill="none" d="M911.6907 734.1975 L991.6907 734.1975 L991.6907 774.1975 L911.6907 774.1975 Z" clip-path="url(#clipPath2)"/>
      <text x="918.3334" xml:space="preserve" y="751.6415" clip-path="url(#clipPath2)" font-family="'Lato'" stroke="none">Git directory</text>
      <text x="921.5015" xml:space="preserve" y="766.0416" clip-path="url(#clipPath2)" font-family="'Lato'" stroke="none">(repository)</text>
    </g>
    <g stroke-linecap="butt" transform="matrix(1,0,0,1,-530,-682)" fill="white" text-rendering="geometricPrecision" shape-rendering="geometricPrecision" stroke="white" stroke-width="3" stroke-miterlimit="1.45">
      <path d="M762.0717 798.5278 L764.9216 803.2778 L606.1183 803.2778 L606.1183 806.2778 L764.9216 806.2778 L762.0717 811.0278 L777.0717 804.7778 L762.0717 798.5278 Z" stroke="none" clip-path="url(#clipPath2)"/>
      <path fill="none" d="M762.0717 798.5278 L764.9216 803.2778 L606.1183 803.2778 L606.1183 806.2778 L764.9216 806.2778 L762.0717 811.0278 L777.0717 804.7778 L762.0717 798.5278 Z" stroke-width="1" clip-path="url(#clipPath2)" stroke="black"/>
      <rect x="662.7239" width="57.8744" height="18.4001" y="808.318" clip-path="url(#clipPath2)" stroke="none"/>
    </g>
    <g text-rendering="geometricPrecision" stroke-miterlimit="1.45" shape-rendering="geometricPrecision" font-family="'Lato'" transform="matrix(1,0,0,1,-530,-682)" stroke-linecap="butt">
      <text x="664.7239" xml:space="preserve" y="822.1621" clip-path="url(#clipPath2)" stroke="none">Stage files</text>
    </g>
    <g stroke-linecap="butt" transform="matrix(1,0,0,1,-530,-682)" fill="white" text-rendering="geometricPrecision" shape-rendering="geometricPrecision" stroke="white" stroke-width="3" stroke-miterlimit="1.45">
      <path d="M935.4717 823.4631 L938.3217 828.2131 L779.5184 828.2131 L779.5184 831.2131 L938.3217 831.2131 L935.4717 835.9631 L950.4717 829.7131 L935.4717 823.4631 Z" stroke="none" clip-path="url(#clipPath2)"/>
      <path fill="none" d="M935.4717 823.4631 L938.3217 828.2131 L779.5184 828.2131 L779.5184 831.2131 L938.3217 831.2131 L935.4717 835.9631 L950.4717 829.7131 L935.4717 823.4631 Z" stroke-width="1" clip-path="url(#clipPath2)" stroke="black"/>
      <rect x="816.0308" width="100.4447" height="18.4001" y="832.8575" clip-path="url(#clipPath2)" stroke="none"/>
    </g>
    <g text-rendering="geometricPrecision" stroke-miterlimit="1.45" shape-rendering="geometricPrecision" font-family="'Lato'" transform="matrix(1,0,0,1,-530,-682)" stroke-linecap="butt">
      <text x="818.0308" xml:space="preserve" y="846.7016" clip-path="url(#clipPath2)" stroke="none">Commit “changes”</text>
    </g>
    <g stroke-linecap="butt" transform="matrix(1,0,0,1,-530,-682)" fill="white" text-rendering="geometricPrecision" shape-rendering="geometricPrecision" stroke="white" stroke-width="3" stroke-miterlimit="1.45">
      <path d="M621.114 919.4991 L606.114 925.7491 L621.114 931.9991 L618.264 927.2491 L950.463 927.2491 L950.463 924.2491 L618.264 924.2491 L621.114 919.4991 Z" stroke="none" clip-path="url(#clipPath2)"/>
      <path fill="none" d="M621.114 919.4991 L606.114 925.7491 L621.114 931.9991 L618.264 927.2491 L950.463 927.2491 L950.463 924.2491 L618.264 924.2491 L621.114 919.4991 Z" stroke-width="1" clip-path="url(#clipPath2)" stroke="black"/>
      <rect x="751.1023" width="54.6703" height="18.4001" y="931.6422" clip-path="url(#clipPath2)" stroke="none"/>
    </g>
    <g text-rendering="geometricPrecision" stroke-miterlimit="1.45" shape-rendering="geometricPrecision" font-family="'Lato'" transform="matrix(1,0,0,1,-530,-682)" stroke-linecap="butt">
      <text x="753.1023" xml:space="preserve" y="945.4863" clip-path="url(#clipPath2)" stroke="none">Checkout</text>
    </g>
    <g stroke-linecap="butt" transform="matrix(1,0,0,1,-530,-682)" fill="white" text-rendering="geometricPrecision" shape-rendering="geometricPrecision" stroke="white" stroke-width="3" stroke-miterlimit="1.45">
      <path d="M621.124 961.206 L606.124 967.456 L621.124 973.706 L618.274 968.956 L950.4612 968.956 L950.4612 965.956 L618.274 965.956 L621.124 961.206 Z" stroke="none" clip-path="url(#clipPath2)"/>
      <path fill="none" d="M621.124 961.206 L606.124 967.456 L621.124 973.706 L618.274 968.956 L950.4612 968.956 L950.4612 965.956 L618.274 965.956 L621.124 961.206 Z" stroke-width="1" clip-path="url(#clipPath2)" stroke="black"/>
      <rect x="757.9156" width="38.4222" height="18.4001" y="973.0067" clip-path="url(#clipPath2)" stroke="none"/>
    </g>
    <g text-rendering="geometricPrecision" stroke-miterlimit="1.45" shape-rendering="geometricPrecision" font-family="'Lato'" transform="matrix(1,0,0,1,-530,-682)" stroke-linecap="butt">
      <text x="759.9156" xml:space="preserve" y="986.8508" clip-path="url(#clipPath2)" stroke="none">Merge</text>
    </g>
    <g fill="rgb(245,245,245)" text-rendering="geometricPrecision" shape-rendering="geometricPrecision" transform="matrix(1,0,0,1,-530,-682)" stroke="rgb(245,245,245)">
      <rect x="1021.6907" y="697.1977" clip-path="url(#clipPath2)" width="125.776" rx="4" ry="4" height="373.2658" stroke="none"/>
      <rect x="1021.6907" y="697.1977" clip-path="url(#clipPath2)" fill="rgb(235,235,235)" width="125.776" height="21.9998" stroke="none"/>
    </g>
    <g font-size="15px" stroke-linecap="butt" transform="matrix(1,0,0,1,-530,-682)" text-rendering="geometricPrecision" font-family="'Lato'" shape-rendering="geometricPrecision" font-weight="bold" stroke-miterlimit="1.45">
      <text x="1058.3665" xml:space="preserve" y="714.0025" clip-path="url(#clipPath2)" stroke="none">Remote</text>
      <rect x="1021.6907" y="697.1977" clip-path="url(#clipPath2)" fill="none" width="125.776" rx="4" ry="4" height="373.2658"/>
    </g>
    <g fill="rgb(204,255,204)" text-rendering="geometricPrecision" shape-rendering="geometricPrecision" transform="matrix(1,0,0,1,-530,-682)" stroke="rgb(204,255,204)">
      <path d="M1043.2507 734.1975 L1123.2507 734.1975 L1123.2507 774.1975 L1043.2507 774.1975 Z" stroke="none" clip-path="url(#clipPath2)"/>
    </g>
    <g text-rendering="geometricPrecision" stroke-miterlimit="1.45" shape-rendering="geometricPrecision" transform="matrix(1,0,0,1,-530,-682)" stroke-linecap="butt">
      <path fill="none" d="M1043.2507 734.1975 L1123.2507 734.1975 L1123.2507 774.1975 L1043.2507 774.1975 Z" clip-path="url(#clipPath2)"/>
      <text x="1062.6675" xml:space="preserve" y="751.6415" clip-path="url(#clipPath2)" font-family="'Lato'" stroke="none">Remote</text>
      <text x="1056.2655" xml:space="preserve" y="766.0416" clip-path="url(#clipPath2)" font-family="'Lato'" stroke="none">repository</text>
    </g>
    <g fill="silver" text-rendering="geometricPrecision" shape-rendering="geometricPrecision" transform="matrix(1,0,0,1,-530,-682)" stroke="silver">
      <rect x="1082.0307" width="2.44" height="231.512" y="782.5655" clip-path="url(#clipPath2)" stroke="none"/>
    </g>
    <g text-rendering="geometricPrecision" stroke-miterlimit="1.45" shape-rendering="geometricPrecision" transform="matrix(1,0,0,1,-530,-682)" stroke-linecap="butt">
      <rect fill="none" x="1082.0307" width="2.44" height="231.512" y="782.5655" clip-path="url(#clipPath2)"/>
    </g>
    <g stroke-linecap="butt" transform="matrix(1,0,0,1,-530,-682)" fill="white" text-rendering="geometricPrecision" shape-rendering="geometricPrecision" stroke="white" stroke-width="3" stroke-miterlimit="1.45">
      <path d="M1067.0094 852.0715 L1069.8594 856.8215 L952.8791 856.8215 L952.8791 859.8215 L1069.8594 859.8215 L1067.0094 864.5715 L1082.0094 858.3215 L1067.0094 852.0715 Z" stroke="none" clip-path="url(#clipPath2)"/>
      <path fill="none" d="M1067.0094 852.0715 L1069.8594 856.8215 L952.8791 856.8215 L952.8791 859.8215 L1069.8594 859.8215 L1067.0094 864.5715 L1082.0094 858.3215 L1067.0094 852.0715 Z" stroke-width="1" clip-path="url(#clipPath2)" stroke="black"/>
      <rect x="1000.3539" width="29.7882" height="18.4001" y="862.2463" clip-path="url(#clipPath2)" stroke="none"/>
    </g>
    <g text-rendering="geometricPrecision" stroke-miterlimit="1.45" shape-rendering="geometricPrecision" font-family="'Lato'" transform="matrix(1,0,0,1,-530,-682)" stroke-linecap="butt">
      <text x="1002.3539" xml:space="preserve" y="876.0905" clip-path="url(#clipPath2)" stroke="none">Push</text>
    </g>
    <g stroke-linecap="butt" transform="matrix(1,0,0,1,-530,-682)" fill="white" text-rendering="geometricPrecision" shape-rendering="geometricPrecision" stroke="white" stroke-width="3" stroke-miterlimit="1.45">
      <path d="M967.9106 892.0715 L952.9106 898.3215 L967.9106 904.5715 L965.0607 899.8215 L1082.0306 899.8215 L1082.0306 896.8215 L965.0607 896.8215 L967.9106 892.0715 Z" stroke="none" clip-path="url(#clipPath2)"/>
      <path fill="none" d="M967.9106 892.0715 L952.9106 898.3215 L967.9106 904.5715 L965.0607 899.8215 L1082.0306 899.8215 L1082.0306 896.8215 L965.0607 896.8215 L967.9106 892.0715 Z" stroke-width="1" clip-path="url(#clipPath2)" stroke="black"/>
      <rect x="980.4834" width="70.7265" height="18.4001" y="903.4433" clip-path="url(#clipPath2)" stroke="none"/>
    </g>
    <g text-rendering="geometricPrecision" stroke-miterlimit="1.45" shape-rendering="geometricPrecision" font-family="'Lato'" transform="matrix(1,0,0,1,-530,-682)" stroke-linecap="butt">
      <text x="982.4835" xml:space="preserve" y="917.2874" clip-path="url(#clipPath2)" stroke="none">Fetch or Pull</text>
    </g>
  </g>
</svg>
