<?xml version="1.0" encoding="UTF-8"?><svg xmlns="http://www.w3.org/2000/svg" xmlns:xlink="http://www.w3.org/1999/xlink" fill-opacity="1" color-rendering="auto" color-interpolation="auto" text-rendering="auto" stroke="black" stroke-linecap="square" width="413" stroke-miterlimit="10" shape-rendering="auto" stroke-opacity="1" fill="black" stroke-dasharray="none" font-weight="normal" stroke-width="1" height="309" font-family="'Dialog'" font-style="normal" stroke-linejoin="miter" font-size="12px" stroke-dashoffset="0" image-rendering="auto">
  <!--Generated by ySVG 2.5-->
  <defs id="genericDefs"/>
  <g>
    <defs id="defs1">
      <clipPath clipPathUnits="userSpaceOnUse" id="clipPath1">
        <path d="M0 0 L413 0 L413 309 L0 309 L0 0 Z"/>
      </clipPath>
      <clipPath clipPathUnits="userSpaceOnUse" id="clipPath2">
        <path d="M662 570 L1075 570 L1075 879 L662 879 L662 570 Z"/>
      </clipPath>
      <clipPath clipPathUnits="userSpaceOnUse" id="clipPath3">
        <path d="M55.5764 -216.7135 L300.5901 115.758 L51.8401 299.0733 L-193.1735 -33.3982 L55.5764 -216.7135 Z"/>
      </clipPath>
      <clipPath clipPathUnits="userSpaceOnUse" id="clipPath4">
        <path d="M63.8428 -202.0842 L312.4042 127.7434 L65.6325 313.713 L-182.9289 -16.1145 L63.8428 -202.0842 Z"/>
      </clipPath>
      <clipPath clipPathUnits="userSpaceOnUse" id="clipPath5">
        <path d="M-145.4541 228.9221 L-145.4469 -184.0779 L163.5531 -184.0725 L163.5459 228.9275 L-145.4541 228.9221 Z"/>
      </clipPath>
      <clipPath clipPathUnits="userSpaceOnUse" id="clipPath6">
        <path d="M183.8799 -182.6489 L183.8799 230.3511 L-125.1201 230.3511 L-125.1201 -182.6489 L183.8799 -182.6489 Z"/>
      </clipPath>
      <clipPath clipPathUnits="userSpaceOnUse" id="clipPath7">
        <path d="M-273.3389 133.5987 L-27.6748 -198.3926 L220.7157 -14.5907 L-24.9483 317.4006 L-273.3389 133.5987 Z"/>
      </clipPath>
      <clipPath clipPathUnits="userSpaceOnUse" id="clipPath8">
        <path d="M-264.868 116.017 L-17.8192 -214.9451 L229.8013 -30.1072 L-17.2474 300.8549 L-264.868 116.017 Z"/>
      </clipPath>
    </defs>
    <g fill="white" text-rendering="geometricPrecision" shape-rendering="geometricPrecision" transform="translate(-662,-570)" stroke="white">
      <rect x="662" width="413" height="309" y="570" clip-path="url(#clipPath2)" stroke="none"/>
    </g>
    <g fill="rgb(245,245,245)" text-rendering="geometricPrecision" shape-rendering="geometricPrecision" transform="matrix(1,0,0,1,-662,-570)" stroke="rgb(245,245,245)">
      <rect x="677.4294" y="585.8348" clip-path="url(#clipPath2)" width="382.144" rx="4" ry="4" height="278.1202" stroke="none"/>
      <rect x="677.4294" y="585.8348" clip-path="url(#clipPath2)" fill="rgb(235,235,235)" width="382.144" height="18.4001" stroke="none"/>
    </g>
    <g stroke-linecap="butt" transform="matrix(1,0,0,1,-662,-570)" text-rendering="geometricPrecision" font-family="'Lato'" shape-rendering="geometricPrecision" font-weight="bold" stroke-miterlimit="1.45">
      <text x="815.692" xml:space="preserve" y="599.6789" clip-path="url(#clipPath2)" stroke="none">Collaboration space</text>
      <rect x="677.4294" y="585.8348" clip-path="url(#clipPath2)" fill="none" width="382.144" rx="4" ry="4" height="278.1202"/>
    </g>
    <g fill="rgb(225,225,225)" text-rendering="geometricPrecision" shape-rendering="geometricPrecision" transform="matrix(1,0,0,1,-662,-570)" stroke="rgb(225,225,225)">
      <rect x="813.5014" y="619.2349" clip-path="url(#clipPath2)" width="110" rx="4" ry="4" height="88.4001" stroke="none"/>
      <rect x="813.5014" y="619.2349" clip-path="url(#clipPath2)" fill="rgb(235,235,235)" width="110" height="18.4001" stroke="none"/>
    </g>
    <g stroke-linecap="butt" transform="matrix(1,0,0,1,-662,-570)" text-rendering="geometricPrecision" font-family="'Lato'" shape-rendering="geometricPrecision" font-weight="bold" stroke-miterlimit="1.45">
      <text x="851.1582" xml:space="preserve" y="633.079" clip-path="url(#clipPath2)" stroke="none">Server</text>
      <rect x="813.5014" y="619.2349" clip-path="url(#clipPath2)" fill="none" width="110" rx="4" ry="4" height="88.4001"/>
    </g>
    <g fill="rgb(204,255,204)" text-rendering="geometricPrecision" shape-rendering="geometricPrecision" transform="matrix(1,0,0,1,-662,-570)" stroke="rgb(204,255,204)">
      <rect x="828.5014" y="652.635" clip-path="url(#clipPath2)" width="80" rx="4" ry="4" height="40" stroke="none"/>
    </g>
    <g text-rendering="geometricPrecision" stroke-miterlimit="1.45" shape-rendering="geometricPrecision" transform="matrix(1,0,0,1,-662,-570)" stroke-linecap="butt">
      <rect x="828.5014" y="652.635" clip-path="url(#clipPath2)" fill="none" width="80" rx="4" ry="4" height="40"/>
      <text x="847.9182" xml:space="preserve" y="670.079" clip-path="url(#clipPath2)" font-family="'Lato'" stroke="none">Remote</text>
      <text x="841.5162" xml:space="preserve" y="684.4791" clip-path="url(#clipPath2)" font-family="'Lato'" stroke="none">repository</text>
    </g>
    <g fill="rgb(225,225,225)" text-rendering="geometricPrecision" shape-rendering="geometricPrecision" transform="matrix(1,0,0,1,-662,-570)" stroke="rgb(225,225,225)">
      <rect x="692.4294" y="760.5549" clip-path="url(#clipPath2)" width="110" rx="4" ry="4" height="88.4001" stroke="none"/>
      <rect x="692.4294" y="760.5549" clip-path="url(#clipPath2)" fill="rgb(235,235,235)" width="110" height="18.4001" stroke="none"/>
    </g>
    <g text-rendering="geometricPrecision" stroke-miterlimit="1.45" shape-rendering="geometricPrecision" font-family="'Lato'" transform="matrix(1,0,0,1,-662,-570)" stroke-linecap="butt">
      <text x="731.3222" xml:space="preserve" y="774.399" clip-path="url(#clipPath2)" stroke="none">PC #1</text>
      <rect x="692.4294" y="760.5549" clip-path="url(#clipPath2)" fill="none" width="110" rx="4" ry="4" height="88.4001"/>
    </g>
    <g fill="rgb(232,238,247)" text-rendering="geometricPrecision" shape-rendering="geometricPrecision" transform="matrix(1,0,0,1,-662,-570)" stroke="rgb(232,238,247)">
      <rect x="707.4294" y="793.955" clip-path="url(#clipPath2)" width="80" rx="4" ry="4" height="40" stroke="none"/>
    </g>
    <g text-rendering="geometricPrecision" stroke-miterlimit="1.45" shape-rendering="geometricPrecision" transform="matrix(1,0,0,1,-662,-570)" stroke-linecap="butt">
      <rect x="707.4294" y="793.955" clip-path="url(#clipPath2)" fill="none" width="80" rx="4" ry="4" height="40"/>
      <text x="724.6742" xml:space="preserve" y="811.399" clip-path="url(#clipPath2)" font-family="'Lato'" stroke="none">Working</text>
      <text x="734.7062" xml:space="preserve" y="825.7991" clip-path="url(#clipPath2)" font-family="'Lato'" stroke="none">copy</text>
      <path fill="none" d="M856.9246 692.662 L787.0012 787.5446" clip-path="url(#clipPath2)"/>
      <path d="M782.2552 793.9847 L793.3994 787.2907 L787.5945 786.7395 L785.3491 781.3582 Z" clip-path="url(#clipPath2)" stroke="none"/>
    </g>
    <g font-size="10px" stroke-linecap="butt" transform="matrix(0.5933,-0.805,0.805,0.5933,141.4869,173.3059)" text-rendering="geometricPrecision" font-family="'Lato'" shape-rendering="geometricPrecision" stroke-miterlimit="1.45">
      <text x="2" xml:space="preserve" y="11.8702" clip-path="url(#clipPath3)" stroke="none">Update</text>
    </g>
    <g text-rendering="geometricPrecision" stroke-miterlimit="1.45" shape-rendering="geometricPrecision" transform="matrix(1,0,0,1,-662,-570)" stroke-linecap="butt">
      <path fill="none" d="M762.5064 793.9486 L834.0346 699.0345" clip-path="url(#clipPath2)"/>
      <path d="M838.8494 692.6456 L827.6342 699.2197 L833.4327 699.8331 L835.6203 705.2382 Z" clip-path="url(#clipPath2)" stroke="none"/>
    </g>
    <g font-size="10px" stroke-linecap="butt" transform="matrix(0.6018,-0.7986,0.7986,0.6018,122.9639,172.6088)" text-rendering="geometricPrecision" font-family="'Lato'" shape-rendering="geometricPrecision" stroke-miterlimit="1.45">
      <text x="2" xml:space="preserve" y="11.8702" clip-path="url(#clipPath4)" stroke="none">Commit</text>
    </g>
    <g fill="rgb(225,225,225)" text-rendering="geometricPrecision" shape-rendering="geometricPrecision" transform="matrix(1,0,0,1,-662,-570)" stroke="rgb(225,225,225)">
      <rect x="813.5014" y="760.5549" clip-path="url(#clipPath2)" width="110" rx="4" ry="4" height="88.4001" stroke="none"/>
      <rect x="813.5014" y="760.5549" clip-path="url(#clipPath2)" fill="rgb(235,235,235)" width="110" height="18.4001" stroke="none"/>
    </g>
    <g text-rendering="geometricPrecision" stroke-miterlimit="1.45" shape-rendering="geometricPrecision" font-family="'Lato'" transform="matrix(1,0,0,1,-662,-570)" stroke-linecap="butt">
      <text x="815.5013" xml:space="preserve" y="774.399" clip-path="url(#clipPath2)" stroke="none">PC #2</text>
      <rect x="813.5014" y="760.5549" clip-path="url(#clipPath2)" fill="none" width="110" rx="4" ry="4" height="88.4001"/>
    </g>
    <g fill="rgb(232,238,247)" text-rendering="geometricPrecision" shape-rendering="geometricPrecision" transform="matrix(1,0,0,1,-662,-570)" stroke="rgb(232,238,247)">
      <rect x="828.5014" y="793.955" clip-path="url(#clipPath2)" width="80" rx="4" ry="4" height="40" stroke="none"/>
    </g>
    <g text-rendering="geometricPrecision" stroke-miterlimit="1.45" shape-rendering="geometricPrecision" transform="matrix(1,0,0,1,-662,-570)" stroke-linecap="butt">
      <rect x="828.5014" y="793.955" clip-path="url(#clipPath2)" fill="none" width="80" rx="4" ry="4" height="40"/>
      <text x="845.7462" xml:space="preserve" y="811.399" clip-path="url(#clipPath2)" font-family="'Lato'" stroke="none">Working</text>
      <text x="855.7783" xml:space="preserve" y="825.7991" clip-path="url(#clipPath2)" font-family="'Lato'" stroke="none">copy</text>
      <path fill="none" d="M877.0215 692.6599 L877.0215 785.946" clip-path="url(#clipPath2)"/>
      <path d="M877.0215 793.946 L882.0215 781.946 L877.0215 784.946 L872.0215 781.946 Z" clip-path="url(#clipPath2)" stroke="none"/>
    </g>
    <g font-size="10px" stroke-linecap="butt" transform="matrix(0,1,-1,0,228.9246,145.4501)" text-rendering="geometricPrecision" font-family="'Lato'" shape-rendering="geometricPrecision" stroke-miterlimit="1.45">
      <text x="2" xml:space="preserve" y="11.8702" clip-path="url(#clipPath5)" stroke="none">Update</text>
    </g>
    <g text-rendering="geometricPrecision" stroke-miterlimit="1.45" shape-rendering="geometricPrecision" transform="matrix(1,0,0,1,-662,-570)" stroke-linecap="butt">
      <path fill="none" d="M860.1127 793.9221 L860.1127 700.6323" clip-path="url(#clipPath2)"/>
      <path d="M860.1127 692.6323 L855.1127 704.6323 L860.1127 701.6323 L865.1127 704.6323 Z" clip-path="url(#clipPath2)" stroke="none"/>
    </g>
    <g font-size="10px" stroke-linecap="butt" transform="matrix(0,-1,1,0,182.6489,183.8799)" text-rendering="geometricPrecision" font-family="'Lato'" shape-rendering="geometricPrecision" stroke-miterlimit="1.45">
      <text x="2" xml:space="preserve" y="11.8702" clip-path="url(#clipPath6)" stroke="none">Commit</text>
    </g>
    <g fill="rgb(225,225,225)" text-rendering="geometricPrecision" shape-rendering="geometricPrecision" transform="matrix(1,0,0,1,-662,-570)" stroke="rgb(225,225,225)">
      <rect x="934.5734" y="760.5549" clip-path="url(#clipPath2)" width="110" rx="4" ry="4" height="88.4001" stroke="none"/>
      <rect x="934.5734" y="760.5549" clip-path="url(#clipPath2)" fill="rgb(235,235,235)" width="110" height="18.4001" stroke="none"/>
    </g>
    <g text-rendering="geometricPrecision" stroke-miterlimit="1.45" shape-rendering="geometricPrecision" font-family="'Lato'" transform="matrix(1,0,0,1,-662,-570)" stroke-linecap="butt">
      <text x="973.4662" xml:space="preserve" y="774.399" clip-path="url(#clipPath2)" stroke="none">PC #3</text>
      <rect x="934.5734" y="760.5549" clip-path="url(#clipPath2)" fill="none" width="110" rx="4" ry="4" height="88.4001"/>
    </g>
    <g fill="rgb(232,238,247)" text-rendering="geometricPrecision" shape-rendering="geometricPrecision" transform="matrix(1,0,0,1,-662,-570)" stroke="rgb(232,238,247)">
      <rect x="949.5734" y="793.955" clip-path="url(#clipPath2)" width="80" rx="4" ry="4" height="40" stroke="none"/>
    </g>
    <g text-rendering="geometricPrecision" stroke-miterlimit="1.45" shape-rendering="geometricPrecision" transform="matrix(1,0,0,1,-662,-570)" stroke-linecap="butt">
      <rect x="949.5734" y="793.955" clip-path="url(#clipPath2)" fill="none" width="80" rx="4" ry="4" height="40"/>
      <text x="966.8182" xml:space="preserve" y="811.399" clip-path="url(#clipPath2)" font-family="'Lato'" stroke="none">Working</text>
      <text x="976.8503" xml:space="preserve" y="825.7991" clip-path="url(#clipPath2)" font-family="'Lato'" stroke="none">copy</text>
      <path fill="none" d="M900.3757 692.6278 L970.6082 787.5403" clip-path="url(#clipPath2)"/>
      <path d="M975.3668 793.9712 L972.2481 781.3508 L970.0134 786.7365 L964.2096 787.2991 Z" clip-path="url(#clipPath2)" stroke="none"/>
    </g>
    <g font-size="10px" stroke-linecap="butt" transform="matrix(0.5948,0.8039,-0.8039,0.5948,269.9833,140.256)" text-rendering="geometricPrecision" font-family="'Lato'" shape-rendering="geometricPrecision" stroke-miterlimit="1.45">
      <text x="2" xml:space="preserve" y="11.8702" clip-path="url(#clipPath7)" stroke="none">Update</text>
    </g>
    <g text-rendering="geometricPrecision" stroke-miterlimit="1.45" shape-rendering="geometricPrecision" transform="matrix(1,0,0,1,-662,-570)" stroke-linecap="butt">
      <path fill="none" d="M957.1471 793.9402 L886.3215 699.0577" clip-path="url(#clipPath2)"/>
      <path d="M881.536 692.6469 L884.7074 705.2541 L886.9197 699.8591 L892.721 699.2723 Z" clip-path="url(#clipPath2)" stroke="none"/>
    </g>
    <g font-size="10px" stroke-linecap="butt" transform="matrix(0.5982,0.8014,-0.8014,0.5982,251.4105,142.8557)" text-rendering="geometricPrecision" font-family="'Lato'" shape-rendering="geometricPrecision" stroke-miterlimit="1.45">
      <text x="2" xml:space="preserve" y="11.8702" clip-path="url(#clipPath8)" stroke="none">Commit</text>
    </g>
  </g>
</svg>
