<?xml version="1.0" encoding="UTF-8"?><svg xmlns="http://www.w3.org/2000/svg" xmlns:xlink="http://www.w3.org/1999/xlink" fill-opacity="1" color-rendering="auto" color-interpolation="auto" text-rendering="auto" stroke="black" stroke-linecap="square" width="519" stroke-miterlimit="10" shape-rendering="auto" stroke-opacity="1" fill="black" stroke-dasharray="none" font-weight="normal" stroke-width="1" height="489" font-family="'Dialog'" font-style="normal" stroke-linejoin="miter" font-size="12px" stroke-dashoffset="0" image-rendering="auto">
  <!--Generated by ySVG 2.5-->
  <defs id="genericDefs"/>
  <g>
    <defs id="defs1">
      <clipPath clipPathUnits="userSpaceOnUse" id="clipPath1">
        <path d="M0 0 L519 0 L519 489 L0 489 L0 0 Z"/>
      </clipPath>
      <clipPath clipPathUnits="userSpaceOnUse" id="clipPath2">
        <path d="M662 570 L1181 570 L1181 1059 L662 1059 L662 570 Z"/>
      </clipPath>
      <clipPath clipPathUnits="userSpaceOnUse" id="clipPath3">
        <path d="M27.2492 -246.4134 L396.6376 118.1592 L53.1386 466.1957 L-316.2498 101.6231 L27.2492 -246.4134 Z"/>
      </clipPath>
      <clipPath clipPathUnits="userSpaceOnUse" id="clipPath4">
        <path d="M22.6499 -231.8857 L391.9272 132.7995 L48.322 480.7312 L-320.9552 116.046 L22.6499 -231.8857 Z"/>
      </clipPath>
      <clipPath clipPathUnits="userSpaceOnUse" id="clipPath5">
        <path d="M305.3907 -98.3715 L305.3907 420.6285 L-183.6093 420.6285 L-183.6093 -98.3715 L305.3907 -98.3715 Z"/>
      </clipPath>
      <clipPath clipPathUnits="userSpaceOnUse" id="clipPath6">
        <path d="M306.8965 -66.8512 L306.8965 452.1488 L-182.1035 452.1488 L-182.1035 -66.8512 L306.8965 -66.8512 Z"/>
      </clipPath>
      <clipPath clipPathUnits="userSpaceOnUse" id="clipPath7">
        <path d="M-253.596 281.8291 L-253.5869 -237.1709 L235.4131 -237.1623 L235.404 281.8377 L-253.596 281.8291 Z"/>
      </clipPath>
      <clipPath clipPathUnits="userSpaceOnUse" id="clipPath8">
        <path d="M-321.6331 -127.6998 L104.1336 -424.4889 L383.7672 -23.333 L-41.9995 273.4561 L-321.6331 -127.6998 Z"/>
      </clipPath>
      <clipPath clipPathUnits="userSpaceOnUse" id="clipPath9">
        <path d="M277.003 -235.5577 L277.003 283.4423 L-211.997 283.4423 L-211.997 -235.5577 L277.003 -235.5577 Z"/>
      </clipPath>
      <clipPath clipPathUnits="userSpaceOnUse" id="clipPath10">
        <path d="M-303.6043 -120.2026 L127.8907 -408.6 L399.6177 -2.047 L-31.8773 286.3505 L-303.6043 -120.2026 Z"/>
      </clipPath>
      <clipPath clipPathUnits="userSpaceOnUse" id="clipPath11">
        <path d="M394.4016 -256.5588 L394.4016 262.4412 L-94.5984 262.4412 L-94.5984 -256.5588 L394.4016 -256.5588 Z"/>
      </clipPath>
      <clipPath clipPathUnits="userSpaceOnUse" id="clipPath12">
        <path d="M396.0999 -226.0566 L396.0999 292.9434 L-92.9001 292.9434 L-92.9001 -226.0566 L396.0999 -226.0566 Z"/>
      </clipPath>
      <clipPath clipPathUnits="userSpaceOnUse" id="clipPath13">
        <path d="M-373.4161 134.6966 L-5.5829 -231.4451 L339.3945 115.1261 L-28.4387 481.2678 L-373.4161 134.6966 Z"/>
      </clipPath>
      <clipPath clipPathUnits="userSpaceOnUse" id="clipPath14">
        <path d="M-169.045 -410.0898 L288.9404 -165.9374 L58.9008 265.5748 L-399.0846 21.4224 L-169.045 -410.0898 Z"/>
      </clipPath>
      <clipPath clipPathUnits="userSpaceOnUse" id="clipPath15">
        <path d="M-370.5112 119.2142 L-1.4199 -245.6593 L342.3626 102.0973 L-26.7287 466.9707 L-370.5112 119.2142 Z"/>
      </clipPath>
      <clipPath clipPathUnits="userSpaceOnUse" id="clipPath16">
        <path d="M-168.7756 -394.5769 L289.9964 -151.9059 L61.3527 280.3475 L-397.4194 37.6766 L-168.7756 -394.5769 Z"/>
      </clipPath>
      <clipPath clipPathUnits="userSpaceOnUse" id="clipPath17">
        <path d="M306.9224 -411.9258 L306.9224 107.0742 L-182.0776 107.0742 L-182.0776 -411.9258 L306.9224 -411.9258 Z"/>
      </clipPath>
      <clipPath clipPathUnits="userSpaceOnUse" id="clipPath18">
        <path d="M309.9768 -391.1085 L309.9768 127.8916 L-179.0232 127.8916 L-179.0232 -391.1085 L309.9768 -391.1085 Z"/>
      </clipPath>
    </defs>
    <g fill="white" text-rendering="geometricPrecision" shape-rendering="geometricPrecision" transform="translate(-662,-570)" stroke="white">
      <rect x="662" width="519" height="489" y="570" clip-path="url(#clipPath2)" stroke="none"/>
    </g>
    <g fill="rgb(245,245,245)" text-rendering="geometricPrecision" shape-rendering="geometricPrecision" transform="matrix(1,0,0,1,-662,-570)" stroke="rgb(245,245,245)">
      <rect x="677.4294" y="585.8348" clip-path="url(#clipPath2)" width="487.744" rx="4" ry="4" height="458.0402" stroke="none"/>
      <rect x="677.4294" y="585.8348" clip-path="url(#clipPath2)" fill="rgb(235,235,235)" width="487.744" height="18.4001" stroke="none"/>
    </g>
    <g stroke-linecap="butt" transform="matrix(1,0,0,1,-662,-570)" text-rendering="geometricPrecision" font-family="'Lato'" shape-rendering="geometricPrecision" font-weight="bold" stroke-miterlimit="1.45">
      <text x="868.492" xml:space="preserve" y="599.6789" clip-path="url(#clipPath2)" stroke="none">Collaboration space</text>
      <rect x="677.4294" y="585.8348" clip-path="url(#clipPath2)" fill="none" width="487.744" rx="4" ry="4" height="458.0402"/>
    </g>
    <g fill="rgb(225,225,225)" text-rendering="geometricPrecision" shape-rendering="geometricPrecision" transform="matrix(1,0,0,1,-662,-570)" stroke="rgb(225,225,225)">
      <rect x="866.4102" y="619.2349" clip-path="url(#clipPath2)" width="110" rx="4" ry="4" height="88.4001" stroke="none"/>
      <rect x="866.4102" y="619.2349" clip-path="url(#clipPath2)" fill="rgb(235,235,235)" width="110" height="18.4001" stroke="none"/>
    </g>
    <g stroke-linecap="butt" transform="matrix(1,0,0,1,-662,-570)" text-rendering="geometricPrecision" font-family="'Lato'" shape-rendering="geometricPrecision" font-weight="bold" stroke-miterlimit="1.45">
      <text x="904.7241" xml:space="preserve" y="633.079" clip-path="url(#clipPath2)" stroke="none">Origin</text>
      <rect x="866.4102" y="619.2349" clip-path="url(#clipPath2)" fill="none" width="110" rx="4" ry="4" height="88.4001"/>
    </g>
    <g fill="rgb(204,255,204)" text-rendering="geometricPrecision" shape-rendering="geometricPrecision" transform="matrix(1,0,0,1,-662,-570)" stroke="rgb(204,255,204)">
      <rect x="881.4102" y="652.635" clip-path="url(#clipPath2)" width="80" rx="4" ry="4" height="40" stroke="none"/>
    </g>
    <g text-rendering="geometricPrecision" stroke-miterlimit="1.45" shape-rendering="geometricPrecision" transform="matrix(1,0,0,1,-662,-570)" stroke-linecap="butt">
      <rect x="881.4102" y="652.635" clip-path="url(#clipPath2)" fill="none" width="80" rx="4" ry="4" height="40"/>
      <text x="892.85" xml:space="preserve" y="677.2791" clip-path="url(#clipPath2)" font-family="'Lato'" stroke="none">Repository</text>
    </g>
    <g fill="rgb(225,225,225)" text-rendering="geometricPrecision" shape-rendering="geometricPrecision" transform="matrix(1,0,0,1,-662,-570)" stroke="rgb(225,225,225)">
      <rect x="708.4294" y="760.5549" clip-path="url(#clipPath2)" width="110" rx="4" ry="4" height="178.3201" stroke="none"/>
      <rect x="708.4294" y="760.5549" clip-path="url(#clipPath2)" fill="rgb(235,235,235)" width="110" height="18.4001" stroke="none"/>
    </g>
    <g text-rendering="geometricPrecision" stroke-miterlimit="1.45" shape-rendering="geometricPrecision" font-family="'Lato'" transform="matrix(1,0,0,1,-662,-570)" stroke-linecap="butt">
      <text x="747.3222" xml:space="preserve" y="774.399" clip-path="url(#clipPath2)" stroke="none">PC #1</text>
      <rect x="708.4294" y="760.5549" clip-path="url(#clipPath2)" fill="none" width="110" rx="4" ry="4" height="178.3201"/>
    </g>
    <g fill="rgb(204,255,204)" text-rendering="geometricPrecision" shape-rendering="geometricPrecision" transform="matrix(1,0,0,1,-662,-570)" stroke="rgb(204,255,204)">
      <rect x="723.4294" y="793.955" clip-path="url(#clipPath2)" width="80" rx="4" ry="4" height="40" stroke="none"/>
    </g>
    <g text-rendering="geometricPrecision" stroke-miterlimit="1.45" shape-rendering="geometricPrecision" transform="matrix(1,0,0,1,-662,-570)" stroke-linecap="butt">
      <rect x="723.4294" y="793.955" clip-path="url(#clipPath2)" fill="none" width="80" rx="4" ry="4" height="40"/>
      <text x="734.8691" xml:space="preserve" y="818.5991" clip-path="url(#clipPath2)" font-family="'Lato'" stroke="none">Repository</text>
    </g>
    <g fill="rgb(232,238,247)" text-rendering="geometricPrecision" shape-rendering="geometricPrecision" transform="matrix(1,0,0,1,-662,-570)" stroke="rgb(232,238,247)">
      <rect x="723.4294" y="879.955" clip-path="url(#clipPath2)" width="80" rx="4" ry="4" height="40" stroke="none"/>
    </g>
    <g text-rendering="geometricPrecision" stroke-miterlimit="1.45" shape-rendering="geometricPrecision" transform="matrix(1,0,0,1,-662,-570)" stroke-linecap="butt">
      <rect x="723.4294" y="879.955" clip-path="url(#clipPath2)" fill="none" width="80" rx="4" ry="4" height="40"/>
      <text x="740.6742" xml:space="preserve" y="897.399" clip-path="url(#clipPath2)" font-family="'Lato'" stroke="none">Working</text>
      <text x="750.7062" xml:space="preserve" y="911.7991" clip-path="url(#clipPath2)" font-family="'Lato'" stroke="none">copy</text>
      <path fill="none" d="M906.9769 692.662 L808.3632 789.9901" clip-path="url(#clipPath2)"/>
      <path d="M802.6693 795.6097 L814.7224 790.739 L809.0749 789.2877 L807.6978 783.6216 Z" clip-path="url(#clipPath2)" stroke="none"/>
    </g>
    <g font-size="10px" stroke-linecap="butt" transform="matrix(0.7117,-0.7025,0.7025,0.7117,153.6995,194.5213)" text-rendering="geometricPrecision" font-family="'Lato'" shape-rendering="geometricPrecision" stroke-miterlimit="1.45">
      <text x="2" xml:space="preserve" y="11.8702" clip-path="url(#clipPath3)" stroke="none">Pull</text>
    </g>
    <g text-rendering="geometricPrecision" stroke-miterlimit="1.45" shape-rendering="geometricPrecision" transform="matrix(1,0,0,1,-662,-570)" stroke-linecap="butt">
      <path fill="none" d="M783.6877 793.9486 L880.5742 698.2669" clip-path="url(#clipPath2)"/>
      <path d="M886.2663 692.6456 L874.2147 697.52 L879.8626 698.9696 L881.2414 704.6352 Z" clip-path="url(#clipPath2)" stroke="none"/>
    </g>
    <g font-size="10px" stroke-linecap="butt" transform="matrix(0.7115,-0.7027,0.7027,0.7115,146.8231,180.906)" text-rendering="geometricPrecision" font-family="'Lato'" shape-rendering="geometricPrecision" stroke-miterlimit="1.45">
      <text x="2" xml:space="preserve" y="11.8702" clip-path="url(#clipPath4)" stroke="none">Push</text>
    </g>
    <g text-rendering="geometricPrecision" stroke-miterlimit="1.45" shape-rendering="geometricPrecision" transform="matrix(1,0,0,1,-662,-570)" stroke-linecap="butt">
      <path fill="none" d="M780.808 833.96 L780.808 871.9522" clip-path="url(#clipPath2)"/>
      <path d="M780.808 879.9522 L785.808 867.9522 L780.808 870.9522 L775.808 867.9522 Z" clip-path="url(#clipPath2)" stroke="none"/>
    </g>
    <g font-size="10px" stroke-linecap="butt" transform="matrix(0,-1,1,0,98.3715,305.3907)" text-rendering="geometricPrecision" font-family="'Lato'" shape-rendering="geometricPrecision" stroke-miterlimit="1.45">
      <text x="2" xml:space="preserve" y="11.8702" clip-path="url(#clipPath5)" stroke="none">Update</text>
    </g>
    <g text-rendering="geometricPrecision" stroke-miterlimit="1.45" shape-rendering="geometricPrecision" transform="matrix(1,0,0,1,-662,-570)" stroke-linecap="butt">
      <path fill="none" d="M750.6293 879.9247 L750.6293 841.9585" clip-path="url(#clipPath2)"/>
      <path d="M750.6293 833.9585 L745.6293 845.9585 L750.6293 842.9585 L755.6293 845.9585 Z" clip-path="url(#clipPath2)" stroke="none"/>
    </g>
    <g font-size="10px" stroke-linecap="butt" transform="matrix(0,-1,1,0,66.8512,306.8965)" text-rendering="geometricPrecision" font-family="'Lato'" shape-rendering="geometricPrecision" stroke-miterlimit="1.45">
      <text x="2" xml:space="preserve" y="11.8702" clip-path="url(#clipPath6)" stroke="none">Commit</text>
    </g>
    <g fill="rgb(225,225,225)" text-rendering="geometricPrecision" shape-rendering="geometricPrecision" transform="matrix(1,0,0,1,-662,-570)" stroke="rgb(225,225,225)">
      <rect x="866.4102" y="850.5549" clip-path="url(#clipPath2)" width="110" rx="4" ry="4" height="178.3201" stroke="none"/>
      <rect x="866.4102" y="850.5549" clip-path="url(#clipPath2)" fill="rgb(235,235,235)" width="110" height="18.4001" stroke="none"/>
    </g>
    <g text-rendering="geometricPrecision" stroke-miterlimit="1.45" shape-rendering="geometricPrecision" font-family="'Lato'" transform="matrix(1,0,0,1,-662,-570)" stroke-linecap="butt">
      <text x="868.4102" xml:space="preserve" y="864.399" clip-path="url(#clipPath2)" stroke="none">PC #2</text>
      <rect x="866.4102" y="850.5549" clip-path="url(#clipPath2)" fill="none" width="110" rx="4" ry="4" height="178.3201"/>
    </g>
    <g fill="rgb(204,255,204)" text-rendering="geometricPrecision" shape-rendering="geometricPrecision" transform="matrix(1,0,0,1,-662,-570)" stroke="rgb(204,255,204)">
      <rect x="881.4102" y="883.955" clip-path="url(#clipPath2)" width="80" rx="4" ry="4" height="40" stroke="none"/>
    </g>
    <g text-rendering="geometricPrecision" stroke-miterlimit="1.45" shape-rendering="geometricPrecision" transform="matrix(1,0,0,1,-662,-570)" stroke-linecap="butt">
      <rect x="881.4102" y="883.955" clip-path="url(#clipPath2)" fill="none" width="80" rx="4" ry="4" height="40"/>
      <text x="892.85" xml:space="preserve" y="908.5991" clip-path="url(#clipPath2)" font-family="'Lato'" stroke="none">Repository</text>
    </g>
    <g fill="rgb(232,238,247)" text-rendering="geometricPrecision" shape-rendering="geometricPrecision" transform="matrix(1,0,0,1,-662,-570)" stroke="rgb(232,238,247)">
      <rect x="881.4102" y="969.459" clip-path="url(#clipPath2)" width="80" rx="4" ry="4" height="40" stroke="none"/>
    </g>
    <g text-rendering="geometricPrecision" stroke-miterlimit="1.45" shape-rendering="geometricPrecision" transform="matrix(1,0,0,1,-662,-570)" stroke-linecap="butt">
      <rect x="881.4102" y="969.459" clip-path="url(#clipPath2)" fill="none" width="80" rx="4" ry="4" height="40"/>
      <text x="898.655" xml:space="preserve" y="986.903" clip-path="url(#clipPath2)" font-family="'Lato'" stroke="none">Working</text>
      <text x="908.6871" xml:space="preserve" y="1001.3031" clip-path="url(#clipPath2)" font-family="'Lato'" stroke="none">copy</text>
      <path fill="none" d="M929.9304 692.6332 L929.9304 875.9691" clip-path="url(#clipPath2)"/>
      <path d="M929.9304 883.9691 L934.9304 871.9691 L929.9304 874.9691 L924.9304 871.9691 Z" clip-path="url(#clipPath2)" stroke="none"/>
    </g>
    <g font-size="10px" stroke-linecap="butt" transform="matrix(0,1,-1,0,281.8336,253.5911)" text-rendering="geometricPrecision" font-family="'Lato'" shape-rendering="geometricPrecision" stroke-miterlimit="1.45">
      <text x="2" xml:space="preserve" y="11.8702" clip-path="url(#clipPath7)" stroke="none">Pull</text>
    </g>
    <g text-rendering="geometricPrecision" stroke-miterlimit="1.45" shape-rendering="geometricPrecision" transform="matrix(1,0,0,1,-662,-570)" stroke-linecap="butt">
      <path fill="none" d="M792.1031 833.9426 L874.8704 891.6371" clip-path="url(#clipPath2)"/>
      <path d="M881.4332 896.2119 L874.4481 885.2479 L874.05 891.0653 L868.7297 893.4515 Z" clip-path="url(#clipPath2)" stroke="none"/>
    </g>
    <g font-size="10px" stroke-linecap="butt" transform="matrix(0.8204,0.5718,-0.5718,0.8204,190.8299,288.685)" text-rendering="geometricPrecision" font-family="'Lato'" shape-rendering="geometricPrecision" stroke-miterlimit="1.45">
      <text x="2" xml:space="preserve" y="11.8702" clip-path="url(#clipPath8)" stroke="none">Pull</text>
    </g>
    <g text-rendering="geometricPrecision" stroke-miterlimit="1.45" shape-rendering="geometricPrecision" transform="matrix(1,0,0,1,-662,-570)" stroke-linecap="butt">
      <path fill="none" d="M913.0215 883.9808 L913.0215 700.6541" clip-path="url(#clipPath2)"/>
      <path d="M913.0215 692.6541 L908.0215 704.6541 L913.0215 701.6541 L918.0215 704.6541 Z" clip-path="url(#clipPath2)" stroke="none"/>
    </g>
    <g font-size="10px" stroke-linecap="butt" transform="matrix(0,-1,1,0,235.5577,277.003)" text-rendering="geometricPrecision" font-family="'Lato'" shape-rendering="geometricPrecision" stroke-miterlimit="1.45">
      <text x="2" xml:space="preserve" y="11.8702" clip-path="url(#clipPath9)" stroke="none">Push</text>
    </g>
    <g text-rendering="geometricPrecision" stroke-miterlimit="1.45" shape-rendering="geometricPrecision" transform="matrix(1,0,0,1,-662,-570)" stroke-linecap="butt">
      <path fill="none" d="M891.5036 883.9664 L810.0955 829.5558" clip-path="url(#clipPath2)"/>
      <path d="M803.4443 825.1104 L810.6426 835.9355 L810.9268 830.1115 L816.1995 827.6216 Z" clip-path="url(#clipPath2)" stroke="none"/>
    </g>
    <g font-size="10px" stroke-linecap="butt" transform="matrix(0.8314,0.5557,-0.5557,0.8314,185.6216,268.6426)" text-rendering="geometricPrecision" font-family="'Lato'" shape-rendering="geometricPrecision" stroke-miterlimit="1.45">
      <text x="2" xml:space="preserve" y="11.8702" clip-path="url(#clipPath10)" stroke="none">Push</text>
    </g>
    <g text-rendering="geometricPrecision" stroke-miterlimit="1.45" shape-rendering="geometricPrecision" transform="matrix(1,0,0,1,-662,-570)" stroke-linecap="butt">
      <path fill="none" d="M936.6145 923.9532 L936.6145 961.4683" clip-path="url(#clipPath2)"/>
      <path d="M936.6145 969.4683 L941.6145 957.4683 L936.6145 960.4683 L931.6145 957.4683 Z" clip-path="url(#clipPath2)" stroke="none"/>
    </g>
    <g font-size="10px" stroke-linecap="butt" transform="matrix(0,-1,1,0,256.5588,394.4016)" text-rendering="geometricPrecision" font-family="'Lato'" shape-rendering="geometricPrecision" stroke-miterlimit="1.45">
      <text x="2" xml:space="preserve" y="11.8702" clip-path="url(#clipPath11)" stroke="none">Update</text>
    </g>
    <g text-rendering="geometricPrecision" stroke-miterlimit="1.45" shape-rendering="geometricPrecision" transform="matrix(1,0,0,1,-662,-570)" stroke-linecap="butt">
      <path fill="none" d="M907.7901 969.4963 L907.7901 931.9578" clip-path="url(#clipPath2)"/>
      <path d="M907.7901 923.9578 L902.7901 935.9578 L907.7901 932.9578 L912.7901 935.9578 Z" clip-path="url(#clipPath2)" stroke="none"/>
    </g>
    <g font-size="10px" stroke-linecap="butt" transform="matrix(0,-1,1,0,226.0566,396.0999)" text-rendering="geometricPrecision" font-family="'Lato'" shape-rendering="geometricPrecision" stroke-miterlimit="1.45">
      <text x="2" xml:space="preserve" y="11.8702" clip-path="url(#clipPath12)" stroke="none">Commit</text>
    </g>
    <g fill="rgb(225,225,225)" text-rendering="geometricPrecision" shape-rendering="geometricPrecision" transform="matrix(1,0,0,1,-662,-570)" stroke="rgb(225,225,225)">
      <rect x="1027.3734" y="765.6749" clip-path="url(#clipPath2)" width="110" rx="4" ry="4" height="173.2001" stroke="none"/>
      <rect x="1027.3734" y="765.6749" clip-path="url(#clipPath2)" fill="rgb(235,235,235)" width="110" height="18.4001" stroke="none"/>
    </g>
    <g text-rendering="geometricPrecision" stroke-miterlimit="1.45" shape-rendering="geometricPrecision" font-family="'Lato'" transform="matrix(1,0,0,1,-662,-570)" stroke-linecap="butt">
      <text x="1066.2662" xml:space="preserve" y="779.519" clip-path="url(#clipPath2)" stroke="none">PC #3</text>
      <rect x="1027.3734" y="765.6749" clip-path="url(#clipPath2)" fill="none" width="110" rx="4" ry="4" height="173.2001"/>
    </g>
    <g fill="rgb(204,255,204)" text-rendering="geometricPrecision" shape-rendering="geometricPrecision" transform="matrix(1,0,0,1,-662,-570)" stroke="rgb(204,255,204)">
      <rect x="1042.3734" y="799.075" clip-path="url(#clipPath2)" width="80" rx="4" ry="4" height="40" stroke="none"/>
    </g>
    <g text-rendering="geometricPrecision" stroke-miterlimit="1.45" shape-rendering="geometricPrecision" transform="matrix(1,0,0,1,-662,-570)" stroke-linecap="butt">
      <rect x="1042.3734" y="799.075" clip-path="url(#clipPath2)" fill="none" width="80" rx="4" ry="4" height="40"/>
      <text x="1053.8131" xml:space="preserve" y="823.7191" clip-path="url(#clipPath2)" font-family="'Lato'" stroke="none">Repository</text>
    </g>
    <g fill="rgb(232,238,247)" text-rendering="geometricPrecision" shape-rendering="geometricPrecision" transform="matrix(1,0,0,1,-662,-570)" stroke="rgb(232,238,247)">
      <rect x="1042.3734" y="878.947" clip-path="url(#clipPath2)" width="80" rx="4" ry="4" height="40" stroke="none"/>
    </g>
    <g text-rendering="geometricPrecision" stroke-miterlimit="1.45" shape-rendering="geometricPrecision" transform="matrix(1,0,0,1,-662,-570)" stroke-linecap="butt">
      <rect x="1042.3734" y="878.947" clip-path="url(#clipPath2)" fill="none" width="80" rx="4" ry="4" height="40"/>
      <text x="1059.6182" xml:space="preserve" y="896.391" clip-path="url(#clipPath2)" font-family="'Lato'" stroke="none">Working</text>
      <text x="1069.6503" xml:space="preserve" y="910.7911" clip-path="url(#clipPath2)" font-family="'Lato'" stroke="none">copy</text>
      <path fill="none" d="M954.9548 692.6101 L1056.2408 793.4303" clip-path="url(#clipPath2)"/>
      <path d="M1061.9108 799.0741 L1056.9332 787.0648 L1055.5321 792.7249 L1049.8785 794.1521 Z" clip-path="url(#clipPath2)" stroke="none"/>
    </g>
    <g font-size="10px" stroke-linecap="butt" transform="matrix(0.7087,0.7055,-0.7055,0.7087,359.678,167.9717)" text-rendering="geometricPrecision" font-family="'Lato'" shape-rendering="geometricPrecision" stroke-miterlimit="1.45">
      <text x="2" xml:space="preserve" y="11.8702" clip-path="url(#clipPath13)" stroke="none">Pull</text>
    </g>
    <g text-rendering="geometricPrecision" stroke-miterlimit="1.45" shape-rendering="geometricPrecision" transform="matrix(1,0,0,1,-662,-570)" stroke-linecap="butt">
      <path fill="none" d="M803.4141 804.9814 L1034.3615 804.9814" clip-path="url(#clipPath2)"/>
      <path d="M1042.3615 804.9814 L1030.3615 799.9814 L1033.3615 804.9814 L1030.3615 809.9814 Z" clip-path="url(#clipPath2)" stroke="none"/>
      <text x="825.9009" font-size="10px" y="800.5773" clip-path="url(#clipPath2)" font-family="'Lato'" stroke="none" xml:space="preserve">Push</text>
      <path fill="none" d="M961.4186 890.6483 L1051.0739 842.853" clip-path="url(#clipPath2)"/>
      <path d="M1058.1334 839.0895 L1045.192 840.3224 L1050.1914 843.3234 L1049.8962 849.1469 Z" clip-path="url(#clipPath2)" stroke="none"/>
    </g>
    <g font-size="10px" stroke-linecap="butt" transform="matrix(0.8824,-0.4704,0.4704,0.8824,342.0897,282.3553)" text-rendering="geometricPrecision" font-family="'Lato'" shape-rendering="geometricPrecision" stroke-miterlimit="1.45">
      <text x="2" xml:space="preserve" y="11.8702" clip-path="url(#clipPath14)" stroke="none">Pull</text>
    </g>
    <g text-rendering="geometricPrecision" stroke-miterlimit="1.45" shape-rendering="geometricPrecision" transform="matrix(1,0,0,1,-662,-570)" stroke-linecap="butt">
      <path fill="none" d="M1044.5527 799.4662 L942.1888 698.2721" clip-path="url(#clipPath2)"/>
      <path d="M936.4996 692.6478 L941.5183 704.64 L942.9 698.9751 L948.5486 697.5284 Z" clip-path="url(#clipPath2)" stroke="none"/>
    </g>
    <g font-size="10px" stroke-linecap="butt" transform="matrix(0.7112,0.703,-0.703,0.7112,347.3035,175.7009)" text-rendering="geometricPrecision" font-family="'Lato'" shape-rendering="geometricPrecision" stroke-miterlimit="1.45">
      <text x="2" xml:space="preserve" y="11.8702" clip-path="url(#clipPath15)" stroke="none">Push</text>
    </g>
    <g text-rendering="geometricPrecision" stroke-miterlimit="1.45" shape-rendering="geometricPrecision" transform="matrix(1,0,0,1,-662,-570)" stroke-linecap="butt">
      <path fill="none" d="M1042.3446 819.075 L811.4018 819.075" clip-path="url(#clipPath2)"/>
      <path d="M803.4018 819.075 L815.4018 824.075 L812.4018 819.075 L815.4018 814.075 Z" clip-path="url(#clipPath2)" stroke="none"/>
      <text x="825.5333" font-size="10px" y="815.7727" clip-path="url(#clipPath2)" font-family="'Lato'" stroke="none" xml:space="preserve">Pull</text>
      <path fill="none" d="M1042.3989 831.522 L950.3508 880.2115" clip-path="url(#clipPath2)"/>
      <path d="M943.2791 883.9521 L956.2244 882.761 L951.2347 879.744 L951.5487 873.9215 Z" clip-path="url(#clipPath2)" stroke="none"/>
    </g>
    <g font-size="10px" stroke-linecap="butt" transform="matrix(0.884,-0.4676,0.4676,0.884,333.6838,269.8727)" text-rendering="geometricPrecision" font-family="'Lato'" shape-rendering="geometricPrecision" stroke-miterlimit="1.45">
      <text x="2" xml:space="preserve" y="11.8702" clip-path="url(#clipPath16)" stroke="none">Push</text>
    </g>
    <g text-rendering="geometricPrecision" stroke-miterlimit="1.45" shape-rendering="geometricPrecision" transform="matrix(1,0,0,1,-662,-570)" stroke-linecap="butt">
      <path fill="none" d="M1094.6245 839.082 L1094.6245 870.9238" clip-path="url(#clipPath2)"/>
      <path d="M1094.6245 878.9238 L1099.6245 866.9238 L1094.6245 869.9238 L1089.6245 866.9238 Z" clip-path="url(#clipPath2)" stroke="none"/>
    </g>
    <g font-size="10px" stroke-linecap="butt" transform="matrix(0,-1,1,0,411.9259,306.9224)" text-rendering="geometricPrecision" font-family="'Lato'" shape-rendering="geometricPrecision" stroke-miterlimit="1.45">
      <text x="2" xml:space="preserve" y="11.8702" clip-path="url(#clipPath17)" stroke="none">Update</text>
    </g>
    <g text-rendering="geometricPrecision" stroke-miterlimit="1.45" shape-rendering="geometricPrecision" transform="matrix(1,0,0,1,-662,-570)" stroke-linecap="butt">
      <path fill="none" d="M1070.6924 878.9235 L1070.6924 847.076" clip-path="url(#clipPath2)"/>
      <path d="M1070.6924 839.076 L1065.6924 851.076 L1070.6924 848.076 L1075.6924 851.076 Z" clip-path="url(#clipPath2)" stroke="none"/>
    </g>
    <g font-size="10px" stroke-linecap="butt" transform="matrix(0,-1,1,0,391.1084,309.9768)" text-rendering="geometricPrecision" font-family="'Lato'" shape-rendering="geometricPrecision" stroke-miterlimit="1.45">
      <text x="2" xml:space="preserve" y="11.8702" clip-path="url(#clipPath18)" stroke="none">Commit</text>
    </g>
  </g>
</svg>
